<svg width="62" height="52" viewBox="0 0 62 52" fill="none" xmlns="http://www.w3.org/2000/svg">
<rect x="58" y="24" width="4" height="4" fill="#5C2936"/>
<rect x="54" y="20" width="4" height="4" fill="#5C2936"/>
<rect x="54" y="28" width="4" height="4" fill="#5C2936"/>
<rect x="50" y="16" width="4" height="4" fill="#5C2936"/>
<rect x="50" y="32" width="4" height="4" fill="#5C2936"/>
<rect x="46" y="12" width="4" height="4" fill="#5C2936"/>
<rect x="46" y="36" width="4" height="4" fill="#5C2936"/>
<rect x="42" y="8" width="4" height="4" fill="#5C2936"/>
<rect x="42" y="40" width="4" height="4" fill="#5C2936"/>
<rect x="38" y="4" width="4" height="4" fill="#5C2936"/>
<rect x="38" y="44" width="4" height="4" fill="#5C2936"/>
<rect x="34" width="4" height="4" fill="#5C2936"/>
<rect x="34" y="48" width="4" height="4" fill="#5C2936"/>
<rect x="34" y="48" width="4" height="4" fill="#5C2936"/>
<rect x="30" y="48" width="4" height="4" fill="#5C2936"/>
<rect x="26" y="8" width="4" height="4" fill="#E3A469"/>
<rect x="30" y="44" width="4" height="4" fill="#5C2936"/>
<rect x="30" y="4" width="4" height="4" fill="#5C2936"/>
<rect x="30" y="40" width="4" height="4" fill="#5C2936"/>
<rect x="30" y="8" width="4" height="4" fill="#5C2936"/>
<rect x="26" y="40" width="4" height="4" fill="#5C2936"/>
<rect x="26" y="8" width="4" height="4" fill="#5C2936"/>
<rect x="22" y="40" width="4" height="4" fill="#5C2936"/>
<rect x="22" y="8" width="4" height="4" fill="#5C2936"/>
<rect x="18" y="40" width="4" height="4" fill="#5C2936"/>
<rect x="8" y="36" width="26" height="4" fill="#915644"/>
<rect x="26" y="28" width="4" height="4" fill="#AC664C"/>
<rect x="26" y="20" width="4" height="4" fill="#AC664C"/>
<rect x="26" y="24" width="4" height="4" fill="#AC664C"/>
<rect x="34" y="12" width="4" height="4" fill="#AC664C"/>
<rect x="34" y="36" width="4" height="4" fill="#AC664C"/>
<rect x="38" y="36" width="4" height="4" fill="#AC664C"/>
<rect x="38" y="20" width="4" height="12" fill="#AC664C"/>
<rect x="42" y="20" width="4" height="12" fill="#AC664C"/>
<rect x="46" y="24" width="4" height="8" fill="#AC664C"/>
<rect x="34" y="40" width="4" height="4" fill="#915644"/>
<rect x="34" y="28" width="4" height="4" fill="#AC664C"/>
<rect x="34" y="20" width="4" height="4" fill="#AC664C"/>
<rect x="34" y="8" width="4" height="4" fill="#DA9268"/>
<rect x="38" y="12" width="4" height="4" fill="#DA9268"/>
<rect x="38" y="40" width="4" height="4" fill="#DA9268"/>
<rect x="42" y="16" width="4" height="4" fill="#DA9268"/>
<rect x="42" y="36" width="4" height="4" fill="#DA9268"/>
<rect x="46" y="20" width="4" height="4" fill="#DA9268"/>
<rect x="46" y="32" width="4" height="4" fill="#DA9268"/>
<rect x="50" y="24" width="4" height="4" fill="#DA9268"/>
<rect x="50" y="28" width="4" height="4" fill="#DA9268"/>
<rect x="34" y="24" width="4" height="4" fill="#AC664C"/>
<rect x="34" y="4" width="4" height="4" fill="#FFD991"/>
<rect x="38" y="8" width="4" height="4" fill="#FFD991"/>
<rect x="42" y="12" width="4" height="4" fill="#FFD991"/>
<rect x="46" y="16" width="4" height="4" fill="#FFD991"/>
<rect x="50" y="20" width="4" height="4" fill="#FFD991"/>
<rect x="54" y="24" width="4" height="4" fill="#FFD991"/>
<rect x="34" y="44" width="4" height="4" fill="#915644"/>
<rect x="8" y="32" width="38" height="4" fill="#AC664C"/>
<rect x="22" y="16" width="20" height="4" fill="#AC664C"/>
<rect x="22" y="12" width="20" height="14" transform="rotate(90 22 12)" fill="#AC664C"/>
<rect x="18" y="8" width="4" height="4" fill="#5C2936"/>
<rect x="4" y="40" width="14" height="4" fill="#5C2936"/>
<rect x="4" y="8" width="14" height="4" fill="#5C2936"/>
<rect y="40" width="4" height="4" fill="#5C2936"/>
<rect y="12" width="4" height="4" fill="#5C2936"/>
<rect x="4" y="12" width="4" height="28" fill="#915644"/>
<rect x="22" y="20" width="4" height="12" fill="#AC664C"/>
<rect x="30" y="20" width="4" height="12" fill="#AC664C"/>
<rect y="8" width="4" height="4" fill="#5C2936"/>
<rect y="16" width="4" height="4" fill="#5C2936"/>
<rect y="20" width="4" height="4" fill="#5C2936"/>
<rect y="24" width="4" height="4" fill="#5C2936"/>
<rect y="28" width="4" height="4" fill="#5C2936"/>
<rect y="32" width="4" height="4" fill="#5C2936"/>
<rect y="34" width="4" height="8" fill="#5C2936"/>
<rect x="30" width="4" height="4" fill="#5C2936"/>
<rect x="8" y="12" width="26" height="4" fill="#DA9268"/>
</svg>
