<svg width="62" height="52" viewBox="0 0 62 52" fill="none" xmlns="http://www.w3.org/2000/svg">
<rect width="4" height="4" transform="matrix(-1 0 0 1 4 24)" fill="#5C2936"/>
<rect width="4" height="4" transform="matrix(-1 0 0 1 8 20)" fill="#5C2936"/>
<rect width="4" height="4" transform="matrix(-1 0 0 1 8 28)" fill="#5C2936"/>
<rect width="4" height="4" transform="matrix(-1 0 0 1 12 16)" fill="#5C2936"/>
<rect width="4" height="4" transform="matrix(-1 0 0 1 12 32)" fill="#5C2936"/>
<rect width="4" height="4" transform="matrix(-1 0 0 1 16 12)" fill="#5C2936"/>
<rect width="4" height="4" transform="matrix(-1 0 0 1 16 36)" fill="#5C2936"/>
<rect width="4" height="4" transform="matrix(-1 0 0 1 20 8)" fill="#5C2936"/>
<rect width="4" height="4" transform="matrix(-1 0 0 1 20 40)" fill="#5C2936"/>
<rect width="4" height="4" transform="matrix(-1 0 0 1 24 4)" fill="#5C2936"/>
<rect width="4" height="4" transform="matrix(-1 0 0 1 24 44)" fill="#5C2936"/>
<rect width="4" height="4" transform="matrix(-1 0 0 1 28 0)" fill="#5C2936"/>
<rect width="4" height="4" transform="matrix(-1 0 0 1 28 48)" fill="#5C2936"/>
<rect width="4" height="4" transform="matrix(-1 0 0 1 28 48)" fill="#5C2936"/>
<rect width="4" height="4" transform="matrix(-1 0 0 1 32 48)" fill="#5C2936"/>
<rect width="4" height="4" transform="matrix(-1 0 0 1 36 8)" fill="#E3A469"/>
<rect width="4" height="4" transform="matrix(-1 0 0 1 32 44)" fill="#5C2936"/>
<rect width="4" height="4" transform="matrix(-1 0 0 1 32 4)" fill="#5C2936"/>
<rect width="4" height="4" transform="matrix(-1 0 0 1 32 40)" fill="#5C2936"/>
<rect width="4" height="4" transform="matrix(-1 0 0 1 32 8)" fill="#5C2936"/>
<rect width="4" height="4" transform="matrix(-1 0 0 1 36 40)" fill="#5C2936"/>
<rect width="4" height="4" transform="matrix(-1 0 0 1 36 8)" fill="#5C2936"/>
<rect width="4" height="4" transform="matrix(-1 0 0 1 40 40)" fill="#5C2936"/>
<rect width="4" height="4" transform="matrix(-1 0 0 1 40 8)" fill="#5C2936"/>
<rect width="4" height="4" transform="matrix(-1 0 0 1 44 40)" fill="#5C2936"/>
<rect width="26" height="4" transform="matrix(-1 0 0 1 54 36)" fill="#915644"/>
<rect width="4" height="4" transform="matrix(-1 0 0 1 36 28)" fill="#AC664C"/>
<rect width="4" height="4" transform="matrix(-1 0 0 1 36 20)" fill="#AC664C"/>
<rect width="4" height="4" transform="matrix(-1 0 0 1 36 24)" fill="#AC664C"/>
<rect width="4" height="4" transform="matrix(-1 0 0 1 28 12)" fill="#AC664C"/>
<rect width="4" height="4" transform="matrix(-1 0 0 1 28 36)" fill="#AC664C"/>
<rect width="4" height="4" transform="matrix(-1 0 0 1 24 36)" fill="#AC664C"/>
<rect width="4" height="12" transform="matrix(-1 0 0 1 24 20)" fill="#AC664C"/>
<rect width="4" height="12" transform="matrix(-1 0 0 1 20 20)" fill="#AC664C"/>
<rect width="4" height="8" transform="matrix(-1 0 0 1 16 24)" fill="#AC664C"/>
<rect width="4" height="4" transform="matrix(-1 0 0 1 28 40)" fill="#915644"/>
<rect width="4" height="4" transform="matrix(-1 0 0 1 28 28)" fill="#AC664C"/>
<rect width="4" height="4" transform="matrix(-1 0 0 1 28 20)" fill="#AC664C"/>
<rect width="4" height="4" transform="matrix(-1 0 0 1 28 8)" fill="#DA9268"/>
<rect width="4" height="4" transform="matrix(-1 0 0 1 24 12)" fill="#DA9268"/>
<rect width="4" height="4" transform="matrix(-1 0 0 1 24 40)" fill="#DA9268"/>
<rect width="4" height="4" transform="matrix(-1 0 0 1 20 16)" fill="#DA9268"/>
<rect width="4" height="4" transform="matrix(-1 0 0 1 20 36)" fill="#DA9268"/>
<rect width="4" height="4" transform="matrix(-1 0 0 1 16 20)" fill="#DA9268"/>
<rect width="4" height="4" transform="matrix(-1 0 0 1 16 32)" fill="#DA9268"/>
<rect width="4" height="4" transform="matrix(-1 0 0 1 12 24)" fill="#DA9268"/>
<rect width="4" height="4" transform="matrix(-1 0 0 1 12 28)" fill="#DA9268"/>
<rect width="4" height="4" transform="matrix(-1 0 0 1 28 24)" fill="#AC664C"/>
<rect width="4" height="4" transform="matrix(-1 0 0 1 28 4)" fill="#FFD991"/>
<rect width="4" height="4" transform="matrix(-1 0 0 1 24 8)" fill="#FFD991"/>
<rect width="4" height="4" transform="matrix(-1 0 0 1 20 12)" fill="#FFD991"/>
<rect width="4" height="4" transform="matrix(-1 0 0 1 16 16)" fill="#FFD991"/>
<rect width="4" height="4" transform="matrix(-1 0 0 1 12 20)" fill="#FFD991"/>
<rect width="4" height="4" transform="matrix(-1 0 0 1 8 24)" fill="#FFD991"/>
<rect width="4" height="4" transform="matrix(-1 0 0 1 28 44)" fill="#915644"/>
<rect width="38" height="4" transform="matrix(-1 0 0 1 54 32)" fill="#AC664C"/>
<rect width="20" height="4" transform="matrix(-1 0 0 1 40 16)" fill="#AC664C"/>
<rect width="20" height="14" transform="matrix(4.37114e-08 1 1 -4.37114e-08 40 12)" fill="#AC664C"/>
<rect width="4" height="4" transform="matrix(-1 0 0 1 44 8)" fill="#5C2936"/>
<rect width="14" height="4" transform="matrix(-1 0 0 1 58 40)" fill="#5C2936"/>
<rect width="14" height="4" transform="matrix(-1 0 0 1 58 8)" fill="#5C2936"/>
<rect width="4" height="4" transform="matrix(-1 0 0 1 62 40)" fill="#5C2936"/>
<rect width="4" height="4" transform="matrix(-1 0 0 1 62 12)" fill="#5C2936"/>
<rect width="4" height="28" transform="matrix(-1 0 0 1 58 12)" fill="#915644"/>
<rect width="4" height="12" transform="matrix(-1 0 0 1 40 20)" fill="#AC664C"/>
<rect width="4" height="12" transform="matrix(-1 0 0 1 32 20)" fill="#AC664C"/>
<rect width="4" height="4" transform="matrix(-1 0 0 1 62 8)" fill="#5C2936"/>
<rect width="4" height="4" transform="matrix(-1 0 0 1 62 16)" fill="#5C2936"/>
<rect width="4" height="4" transform="matrix(-1 0 0 1 62 20)" fill="#5C2936"/>
<rect width="4" height="4" transform="matrix(-1 0 0 1 62 24)" fill="#5C2936"/>
<rect width="4" height="4" transform="matrix(-1 0 0 1 62 28)" fill="#5C2936"/>
<rect width="4" height="4" transform="matrix(-1 0 0 1 62 32)" fill="#5C2936"/>
<rect width="4" height="8" transform="matrix(-1 0 0 1 62 34)" fill="#5C2936"/>
<rect width="4" height="4" transform="matrix(-1 0 0 1 32 0)" fill="#5C2936"/>
<rect width="26" height="4" transform="matrix(-1 0 0 1 54 12)" fill="#DA9268"/>
</svg>
