<svg width="672" height="491" viewBox="0 0 672 491" fill="none" xmlns="http://www.w3.org/2000/svg">
<rect x="16.792" y="20.5439" width="642.756" height="454.282" fill="#FDF2DB"/>
<rect y="5.15942" width="4.29622" height="479.838" fill="#5C2936"/>
<rect x="4.29541" y="10.3201" width="4.29622" height="15.4787" fill="#AC664C"/>
<rect x="667.704" y="479.838" width="4.29622" height="15.4787" transform="rotate(-180 667.704 479.838)" fill="#AC664C"/>
<rect x="8.59277" y="10.3201" width="4.29622" height="5.15955" fill="#AC664C"/>
<rect x="663.408" y="479.838" width="4.29622" height="5.15955" transform="rotate(-180 663.408 479.838)" fill="#AC664C"/>
<rect x="8.59277" y="15.4795" width="4.29622" height="10.3191" fill="#C67E54"/>
<rect x="663.408" y="474.679" width="4.29622" height="10.3191" transform="rotate(-180 663.408 474.679)" fill="#C67E54"/>
<rect x="12.8882" y="77.3931" width="4.29622" height="20.6382" fill="#C67E54"/>
<rect x="12.8882" y="36.1157" width="4.29622" height="25.7978" fill="#C67E54"/>
<rect x="17.1851" y="41.2764" width="4.29622" height="15.4787" fill="#C67E54"/>
<rect x="21.481" y="46.4348" width="4.29622" height="5.15955" fill="#C67E54"/>
<rect x="4.29541" y="25.7966" width="4.29622" height="87.7124" fill="#89414E"/>
<rect x="8.59277" y="25.7966" width="4.29622" height="87.7124" fill="#AC664C"/>
<rect x="8.59277" y="113.509" width="4.29623" height="263.137" fill="#C67E54"/>
<rect x="8.59277" y="376.647" width="4.29622" height="98.0315" fill="#AC664C"/>
<rect x="12.8877" y="412.762" width="4.29622" height="30.9573" fill="#C67E54"/>
<rect x="12.8877" y="469.52" width="4.29622" height="5.15955" fill="#AC664C"/>
<rect x="12.8877" y="443.72" width="4.29622" height="25.7978" fill="#F1DCC1"/>
<rect x="17.1851" y="464.362" width="4.29622" height="10.3191" fill="#F1DCC1"/>
<rect x="17.1851" y="412.762" width="4.29622" height="30.9573" fill="#F1DCC1"/>
<rect x="12.8882" y="98.0332" width="4.29623" height="314.733" fill="#F1DCC1"/>
<rect x="17.1851" y="77.3931" width="4.29622" height="20.6382" fill="#F1DCC1"/>
<rect x="12.8882" y="61.9136" width="4.29622" height="15.4787" fill="#F1DCC1"/>
<rect x="25.7778" y="46.4348" width="4.29622" height="5.15955" fill="#F1DCC1"/>
<rect x="21.481" y="41.2764" width="4.29622" height="5.15955" fill="#F1DCC1"/>
<rect x="120.296" y="15.4795" width="4.29622" height="5.15955" fill="#C67E54"/>
<rect x="120.296" y="20.6382" width="4.29622" height="5.15955" fill="#F1DCC1"/>
<rect x="322.217" y="474.679" width="4.29622" height="5.15955" transform="rotate(-180 322.217 474.679)" fill="#C67E54"/>
<rect x="141.775" y="15.4795" width="4.29622" height="5.15955" fill="#C67E54"/>
<rect x="300.736" y="474.679" width="4.29622" height="5.15955" transform="rotate(-180 300.736 474.679)" fill="#C67E54"/>
<rect x="146.071" y="15.4795" width="12.8887" height="5.15955" fill="#C67E54"/>
<rect x="146.071" y="20.6382" width="12.8887" height="5.15955" fill="#F1DCC1"/>
<rect x="296.439" y="474.679" width="12.8887" height="5.15955" transform="rotate(-180 296.439 474.679)" fill="#C67E54"/>
<rect x="17.1851" y="36.1157" width="4.29622" height="5.15955" fill="#F1DCC1"/>
<rect x="17.1851" y="20.6382" width="4.29622" height="5.15955" fill="#F1DCC1"/>
<rect x="124.591" y="15.4795" width="21.4811" height="5.15955" fill="#F1DCC1"/>
<rect x="317.921" y="474.679" width="21.4811" height="5.15955" transform="rotate(-180 317.921 474.679)" fill="#F1DCC1"/>
<rect x="388.449" y="15.4795" width="266.366" height="5.15956" fill="#F1DCC1"/>
<rect x="158.59" y="15.4795" width="266.366" height="5.15956" fill="#F1DCC1"/>
<rect x="392.742" y="15.4795" width="266.366" height="5.15956" fill="#F1DCC1"/>
<rect x="283.552" y="474.679" width="266.366" height="5.15956" transform="rotate(-180 283.552 474.679)" fill="#F1DCC1"/>
<rect x="659.111" y="20.6382" width="319.893" height="4.29623" transform="rotate(90 659.111 20.6382)" fill="#F1DCC1"/>
<rect x="663.408" y="20.6382" width="92.8719" height="4.29622" transform="rotate(90 663.408 20.6382)" fill="#C67E54"/>
<rect x="663.408" y="14.8379" width="92.8719" height="4.29622" transform="rotate(90 663.408 14.8379)" fill="#C67E54"/>
<rect x="663.408" y="201.223" width="87.7124" height="4.29622" transform="rotate(90 663.408 201.223)" fill="#C67E54"/>
<rect x="663.408" y="288.935" width="87.7124" height="4.29622" transform="rotate(90 663.408 288.935)" fill="#AC664C"/>
<rect x="663.408" y="376.647" width="87.7124" height="4.29622" transform="rotate(90 663.408 376.647)" fill="#C67E54"/>
<rect x="667.704" y="376.647" width="87.7124" height="4.29622" transform="rotate(90 667.704 376.647)" fill="#AC664C"/>
<rect x="667.704" y="464.362" width="10.3191" height="4.29622" transform="rotate(90 667.704 464.362)" fill="#AC664C"/>
<rect x="663.408" y="464.362" width="10.3191" height="4.29622" transform="rotate(90 663.408 464.362)" fill="#AC664C"/>
<rect x="659.111" y="469.52" width="5.15955" height="4.29622" transform="rotate(90 659.111 469.52)" fill="#AC664C"/>
<rect x="654.815" y="464.362" width="5.15955" height="4.29622" transform="rotate(90 654.815 464.362)" fill="#F1DCC1"/>
<rect x="654.815" y="469.52" width="5.15957" height="403.845" transform="rotate(90 654.815 469.52)" fill="#F1DCC1"/>
<rect x="659.111" y="464.362" width="5.15955" height="4.29622" transform="rotate(90 659.111 464.362)" fill="#AC664C"/>
<rect x="667.704" y="288.935" width="87.7124" height="4.29622" transform="rotate(90 667.704 288.935)" fill="#89414E"/>
<rect x="667.704" y="201.223" width="87.7124" height="4.29622" transform="rotate(90 667.704 201.223)" fill="#AC664C"/>
<rect x="663.408" y="154.786" width="10.3191" height="4.29622" transform="rotate(90 663.408 154.786)" fill="#C67E54"/>
<rect x="667.704" y="154.786" width="10.3191" height="4.29622" transform="rotate(90 667.704 154.786)" fill="#89414E"/>
<rect x="663.408" y="180.584" width="5.15955" height="4.29622" transform="rotate(90 663.408 180.584)" fill="#C67E54"/>
<rect x="663.408" y="165.107" width="15.4787" height="4.29622" transform="rotate(90 663.408 165.107)" fill="#89414E"/>
<rect x="663.408" y="113.511" width="41.2764" height="4.29622" transform="rotate(90 663.408 113.511)" fill="#C67E54"/>
<rect x="667.704" y="113.511" width="41.2764" height="4.29622" transform="rotate(90 667.704 113.511)" fill="#AC664C"/>
<rect x="663.408" y="185.744" width="15.4787" height="4.29622" transform="rotate(90 663.408 185.744)" fill="#C67E54"/>
<rect x="667.704" y="185.744" width="15.4787" height="4.29622" transform="rotate(90 667.704 185.744)" fill="#AC664C"/>
<rect x="17.1851" y="15.4795" width="103.109" height="5.15955" fill="#F1DCC1"/>
<rect x="654.815" y="474.679" width="103.109" height="5.15955" transform="rotate(-180 654.815 474.679)" fill="#F1DCC1"/>
<rect x="12.8882" y="20.6382" width="4.29622" height="15.4787" fill="#F1DCC1"/>
<rect x="17.1851" y="56.7549" width="4.29622" height="5.15955" fill="#F1DCC1"/>
<rect x="21.481" y="51.5964" width="4.29622" height="5.15955" fill="#F1DCC1"/>
<rect x="4.29541" y="113.509" width="4.29623" height="263.137" fill="#AC664C"/>
<rect x="4.29541" y="376.647" width="4.29622" height="98.0315" fill="#89414E"/>
<rect x="12.8882" y="15.4795" width="4.29622" height="5.15955" fill="#C67E54"/>
<rect x="659.111" y="474.679" width="4.29622" height="5.15955" transform="rotate(-180 659.111 474.679)" fill="#C67E54"/>
<rect x="4.29541" y="5.15942" width="141.775" height="5.15955" fill="#AC664C"/>
<rect x="667.704" y="484.999" width="141.775" height="5.15955" transform="rotate(-180 667.704 484.999)" fill="#AC664C"/>
<rect x="622.209" y="484.999" width="141.775" height="5.15955" transform="rotate(-180 622.209 484.999)" fill="#AC664C"/>
<rect x="576.714" y="484.999" width="141.775" height="5.15955" transform="rotate(-180 576.714 484.999)" fill="#AC664C"/>
<rect x="531.221" y="484.999" width="141.775" height="5.15955" transform="rotate(-180 531.221 484.999)" fill="#AC664C"/>
<rect x="485.726" y="484.999" width="141.775" height="5.15955" transform="rotate(-180 485.726 484.999)" fill="#AC664C"/>
<rect x="436.565" y="484.999" width="141.775" height="5.15955" transform="rotate(-180 436.565 484.999)" fill="#AC664C"/>
<rect x="146.071" y="5.15942" width="8.59245" height="5.15955" fill="#89414E"/>
<rect x="296.439" y="484.999" width="8.59245" height="5.15955" transform="rotate(-180 296.439 484.999)" fill="#89414E"/>
<rect x="262.069" y="5.15942" width="8.59245" height="5.15955" fill="#89414E"/>
<rect x="180.441" y="484.999" width="8.59245" height="5.15955" transform="rotate(-180 180.441 484.999)" fill="#89414E"/>
<rect x="360.884" y="5.15942" width="8.59245" height="5.15955" fill="#89414E"/>
<rect x="81.6284" y="484.999" width="8.59245" height="5.15955" transform="rotate(-180 81.6284 484.999)" fill="#89414E"/>
<rect x="611.854" y="5.15942" width="4.29622" height="5.15955" fill="#89414E"/>
<rect x="60.1475" y="484.999" width="4.29622" height="5.15955" transform="rotate(-180 60.1475 484.999)" fill="#89414E"/>
<rect x="369.475" y="5.15942" width="4.29622" height="5.15955" fill="#AC664C"/>
<rect x="73.0361" y="484.999" width="4.29622" height="5.15955" transform="rotate(-180 73.0361 484.999)" fill="#AC664C"/>
<rect x="616.148" y="5.15942" width="51.5547" height="5.15955" fill="#AC664C"/>
<rect x="55.8511" y="484.999" width="51.5547" height="5.15955" transform="rotate(-180 55.8511 484.999)" fill="#AC664C"/>
<rect x="659.111" y="10.3201" width="8.59245" height="5.15955" fill="#AC664C"/>
<rect x="12.8877" y="479.838" width="8.59245" height="5.15955" transform="rotate(-180 12.8877 479.838)" fill="#AC664C"/>
<rect x="667.704" y="15.4795" width="98.0315" height="4.29622" transform="rotate(90 667.704 15.4795)" fill="#AC664C"/>
<rect width="42.9622" height="5.15955" transform="matrix(1 0 0 -1 616.148 15.4795)" fill="#C67E54"/>
<rect width="42.9622" height="5.15955" transform="matrix(-1 -1.0499e-07 -7.27946e-08 1 55.8511 474.679)" fill="#C67E54"/>
<rect width="12.8887" height="5.15955" transform="matrix(1 0 0 -1 603.26 15.4795)" fill="#89414E"/>
<rect width="12.8887" height="5.15955" transform="matrix(-1 -1.0499e-07 -7.27946e-08 1 68.7393 474.679)" fill="#89414E"/>
<rect width="81.6282" height="5.15955" transform="matrix(1 0 0 -1 292.144 15.4795)" fill="#C67E54"/>
<rect width="81.6282" height="5.15955" transform="matrix(1 0 0 -1 372.22 15.4795)" fill="#C67E54"/>
<rect width="81.6282" height="5.15955" transform="matrix(1 0 0 -1 453.38 15.4312)" fill="#C67E54"/>
<rect width="81.6282" height="5.15955" transform="matrix(1 0 0 -1 522.413 15.4312)" fill="#C67E54"/>
<rect width="81.6282" height="5.15955" transform="matrix(-1 -1.0499e-07 -7.27946e-08 1 150.368 474.679)" fill="#C67E54"/>
<rect width="107.406" height="5.15955" transform="matrix(1 0 0 -1 167.554 15.4795)" fill="#C67E54"/>
<rect width="107.406" height="5.15955" transform="matrix(-1 -1.0499e-07 -7.27946e-08 1 274.958 474.679)" fill="#C67E54"/>
<rect width="107.406" height="5.15955" transform="matrix(-1 -1.0499e-07 -7.27946e-08 1 364.881 474.679)" fill="#C67E54"/>
<rect width="107.406" height="5.15955" transform="matrix(-1 -1.0499e-07 -7.27946e-08 1 454.803 474.679)" fill="#C67E54"/>
<rect width="107.406" height="5.15955" transform="matrix(-1 -1.0499e-07 -7.27946e-08 1 544.726 474.679)" fill="#C67E54"/>
<rect width="141.775" height="5.15955" transform="matrix(1 0 0 -1 12.8882 15.4795)" fill="#C67E54"/>
<rect width="141.775" height="5.15955" transform="matrix(-1 -1.0499e-07 -7.27946e-08 1 659.111 474.679)" fill="#C67E54"/>
<rect x="607.557" y="5.15942" width="4.29622" height="5.15955" fill="#AC664C"/>
<rect x="64.4443" y="484.999" width="4.29622" height="5.15955" transform="rotate(-180 64.4443 484.999)" fill="#AC664C"/>
<rect x="287.847" y="5.15942" width="17.1849" height="5.15955" fill="#89414E"/>
<rect x="154.664" y="484.999" width="17.1849" height="5.15955" transform="rotate(-180 154.664 484.999)" fill="#89414E"/>
<rect x="274.958" y="10.3201" width="17.1849" height="5.15955" fill="#89414E"/>
<rect x="167.554" y="479.838" width="17.1849" height="5.15955" transform="rotate(-180 167.554 479.838)" fill="#89414E"/>
<rect x="154.664" y="10.3201" width="12.8887" height="5.15955" fill="#89414E"/>
<rect x="287.847" y="479.838" width="12.8887" height="5.15955" transform="rotate(-180 287.847 479.838)" fill="#89414E"/>
<rect x="154.664" y="5.15942" width="4.29622" height="5.15955" fill="#AC664C"/>
<rect x="287.847" y="484.999" width="4.29622" height="5.15955" transform="rotate(-180 287.847 484.999)" fill="#AC664C"/>
<rect x="163.257" y="5.15942" width="4.29622" height="5.15955" fill="#AC664C"/>
<rect x="279.254" y="484.999" width="4.29622" height="5.15955" transform="rotate(-180 279.254 484.999)" fill="#AC664C"/>
<rect x="270.663" y="5.15942" width="4.29622" height="5.15955" fill="#AC664C"/>
<rect x="171.85" y="484.999" width="4.29622" height="5.15955" transform="rotate(-180 171.85 484.999)" fill="#AC664C"/>
<rect x="283.552" y="5.15942" width="4.29622" height="5.15955" fill="#AC664C"/>
<rect x="158.96" y="484.999" width="4.29622" height="5.15955" transform="rotate(-180 158.96 484.999)" fill="#AC664C"/>
<rect x="305.032" y="5.15942" width="55.8509" height="5.15955" fill="#AC664C"/>
<rect x="373.152" y="5.15942" width="55.8509" height="5.15955" fill="#AC664C"/>
<rect x="425.394" y="5.15942" width="55.8509" height="5.15955" fill="#AC664C"/>
<rect x="477.635" y="5.15942" width="55.8509" height="5.15955" fill="#AC664C"/>
<rect x="529.876" y="5.15942" width="55.8509" height="5.15955" fill="#AC664C"/>
<rect x="547.601" y="5.15942" width="55.8509" height="5.15955" fill="#AC664C"/>
<rect x="137.479" y="484.999" width="55.8509" height="5.15955" transform="rotate(-180 137.479 484.999)" fill="#AC664C"/>
<rect x="171.85" y="5.15942" width="90.2207" height="5.15955" fill="#AC664C"/>
<rect x="270.663" y="484.999" width="90.2207" height="5.15955" transform="rotate(-180 270.663 484.999)" fill="#AC664C"/>
<rect x="167.554" y="5.15942" width="4.29622" height="5.15955" fill="#89414E"/>
<rect x="274.958" y="484.999" width="4.29622" height="5.15955" transform="rotate(-180 274.958 484.999)" fill="#89414E"/>
<rect x="158.96" y="5.15942" width="4.29622" height="5.15955" fill="#5C2936"/>
<rect x="283.552" y="484.999" width="4.29622" height="5.15955" transform="rotate(-180 283.552 484.999)" fill="#5C2936"/>
<rect x="274.958" y="5.15942" width="4.29622" height="5.15955" fill="#5C2936"/>
<rect x="167.554" y="484.999" width="4.29622" height="5.15955" transform="rotate(-180 167.554 484.999)" fill="#5C2936"/>
<rect x="279.254" y="5.15942" width="4.29622" height="5.15955" fill="#5C2936"/>
<rect x="163.257" y="484.999" width="4.29622" height="5.15955" transform="rotate(-180 163.257 484.999)" fill="#5C2936"/>
<rect x="603.26" y="5.15942" width="4.29622" height="5.15955" fill="#5C2936"/>
<rect x="68.7393" y="484.999" width="4.29622" height="5.15955" transform="rotate(-180 68.7393 484.999)" fill="#5C2936"/>
<rect x="607.557" width="60.1471" height="5.15955" fill="#5C2936"/>
<rect x="64.4443" y="490.158" width="60.1471" height="5.15955" transform="rotate(-180 64.4443 490.158)" fill="#5C2936"/>
<rect x="672" y="5.15942" width="165.106" height="4.29622" transform="rotate(90 672 5.15942)" fill="#5C2936"/>
<rect x="672" y="12.5552" width="165.106" height="4.29622" transform="rotate(90 672 12.5552)" fill="#5C2936"/>
<rect x="672" y="175.424" width="309.574" height="4.29622" transform="rotate(90 672 175.424)" fill="#5C2936"/>
<rect x="283.552" width="90.2207" height="5.15955" fill="#5C2936"/>
<rect x="364.756" width="90.2207" height="5.15955" fill="#5C2936"/>
<rect x="445.962" width="90.2207" height="5.15955" fill="#5C2936"/>
<rect x="527.167" width="90.2207" height="5.15955" fill="#5C2936"/>
<rect x="158.96" y="490.158" width="90.2207" height="5.15955" transform="rotate(-180 158.96 490.158)" fill="#5C2936"/>
<rect x="163.257" width="111.702" height="5.15955" fill="#5C2936"/>
<rect x="279.254" y="490.158" width="111.702" height="5.15955" transform="rotate(-180 279.254 490.158)" fill="#5C2936"/>
<rect x="343.989" y="490.158" width="111.702" height="5.15955" transform="rotate(-180 343.989 490.158)" fill="#5C2936"/>
<rect x="408.725" y="490.158" width="111.702" height="5.15955" transform="rotate(-180 408.725 490.158)" fill="#5C2936"/>
<rect x="473.46" y="490.158" width="111.702" height="5.15955" transform="rotate(-180 473.46 490.158)" fill="#5C2936"/>
<rect x="538.193" y="490.158" width="111.702" height="5.15955" transform="rotate(-180 538.193 490.158)" fill="#5C2936"/>
<rect x="4.29565" width="154.664" height="5.15955" fill="#5C2936"/>
<rect x="667.704" y="490.158" width="154.664" height="5.15955" transform="rotate(-180 667.704 490.158)" fill="#5C2936"/>
<rect x="650.519" y="20.6382" width="4.29622" height="5.15955" fill="#F1DCC1"/>
<rect x="654.883" y="14.8379" width="4.29622" height="5.15955" fill="#C67E54"/>
<rect x="663.408" y="170.265" width="4.29622" height="5.15955" fill="#5C2936"/>
<rect x="663.408" y="165.107" width="4.29622" height="5.15955" fill="#AC664C"/>
<rect x="663.408" y="175.424" width="4.29622" height="5.15955" fill="#AC664C"/>
<rect x="663.408" y="180.584" width="4.29622" height="5.15955" fill="#89414E"/>
<rect x="654.815" y="340.531" width="4.29622" height="25.7978" fill="#C67E54"/>
<rect x="650.519" y="356.008" width="4.29622" height="5.15955" fill="#C67E54"/>
<rect x="650.519" y="340.531" width="4.29622" height="15.4787" fill="#F1DCC1"/>
<rect x="646.223" y="356.008" width="4.29622" height="5.15955" fill="#F1DCC1"/>
<rect x="650.519" y="361.17" width="4.29622" height="5.15955" fill="#F1DCC1"/>
<rect x="654.815" y="366.326" width="4.29622" height="103.191" fill="#F1DCC1"/>
</svg>
