<svg width="721" height="273" viewBox="0 0 721 273" fill="none" xmlns="http://www.w3.org/2000/svg">
<rect x="9.21045" y="29.4473" width="4.60534" height="230.537" fill="#C67E54"/>
<rect x="4.60449" y="29.4473" width="4.60534" height="230.537" fill="#AC664C"/>
<path d="M13.8159 3.88672H18.4213V259.627H13.8159V3.88672Z" fill="#F1DCC1"/>
<rect x="18" y="5" width="689" height="253" fill="#FDF2DB"/>
<path d="M0 4.52051H4.60533V267.911H0V4.52051Z" fill="#5C2936"/>
<rect x="4.60449" y="9.04102" width="4.60533" height="13.561" fill="#AC664C"/>
<rect x="715.744" y="263.391" width="4.60533" height="13.561" transform="rotate(-180 715.744 263.391)" fill="#AC664C"/>
<rect x="9.21045" y="9.04102" width="4.60533" height="4.52033" fill="#AC664C"/>
<rect x="711.139" y="263.391" width="4.60533" height="4.52033" transform="rotate(-180 711.139 263.391)" fill="#AC664C"/>
<rect x="9.21045" y="13.5615" width="4.60533" height="9.04066" fill="#C67E54"/>
<rect x="711.139" y="258.87" width="4.60533" height="9.04066" transform="rotate(-180 711.139 258.87)" fill="#C67E54"/>
<rect x="13.8159" y="67.8047" width="4.60533" height="18.0813" fill="#C67E54"/>
<rect x="13.8159" y="31.6426" width="4.60533" height="22.6016" fill="#C67E54"/>
<rect x="18.4214" y="36.1621" width="4.60533" height="13.561" fill="#C67E54"/>
<rect x="23.0264" y="40.6826" width="4.60533" height="4.52033" fill="#C67E54"/>
<rect x="4.60449" y="22.6016" width="4.60533" height="76.8456" fill="#89414E"/>
<rect x="9.21045" y="22.6016" width="4.60533" height="76.8456" fill="#AC664C"/>
<rect x="9.21045" y="172.984" width="4.60533" height="85.8862" fill="#AC664C"/>
<rect x="13.8154" y="254.35" width="4.60533" height="4.52033" fill="#AC664C"/>
<rect x="13.8154" y="231.748" width="4.60533" height="22.6016" fill="#F1DCC1"/>
<rect x="18.4214" y="249.83" width="4.60533" height="9.04066" fill="#F1DCC1"/>
<rect x="18.4214" y="67.8047" width="4.60533" height="18.0813" fill="#F1DCC1"/>
<rect x="13.8159" y="54.2441" width="4.60533" height="13.561" fill="#F1DCC1"/>
<rect x="27.6323" y="40.6826" width="4.60533" height="4.52033" fill="#F1DCC1"/>
<rect x="23.0264" y="36.1621" width="4.60533" height="4.52033" fill="#F1DCC1"/>
<rect x="128.95" y="13.5615" width="4.60533" height="4.52033" fill="#C67E54"/>
<rect x="128.95" y="18.082" width="4.60533" height="4.52033" fill="#F1DCC1"/>
<rect x="345.4" y="258.87" width="4.60533" height="4.52033" transform="rotate(-180 345.4 258.87)" fill="#C67E54"/>
<rect x="151.976" y="13.5615" width="4.60533" height="4.52033" fill="#C67E54"/>
<rect x="322.374" y="258.87" width="4.60533" height="4.52033" transform="rotate(-180 322.374 258.87)" fill="#C67E54"/>
<rect x="156.581" y="13.5615" width="13.816" height="4.52033" fill="#C67E54"/>
<rect x="156.581" y="18.082" width="13.816" height="4.52033" fill="#F1DCC1"/>
<rect x="317.768" y="258.87" width="13.816" height="4.52033" transform="rotate(-180 317.768 258.87)" fill="#C67E54"/>
<rect x="18.4214" y="31.6426" width="4.60533" height="4.52033" fill="#F1DCC1"/>
<rect x="18.4214" y="18.082" width="4.60533" height="4.52033" fill="#F1DCC1"/>
<rect x="133.555" y="13.5615" width="23.0267" height="4.52033" fill="#F1DCC1"/>
<rect x="340.795" y="258.87" width="23.0267" height="4.52033" transform="rotate(-180 340.795 258.87)" fill="#F1DCC1"/>
<rect x="416.397" y="13.5615" width="285.531" height="4.52034" fill="#F1DCC1"/>
<rect x="170" y="13.5615" width="285.531" height="4.52034" fill="#F1DCC1"/>
<rect x="421" y="13.5615" width="285.531" height="4.52034" fill="#F1DCC1"/>
<rect x="303.952" y="258.87" width="285.531" height="4.52034" transform="rotate(-180 303.952 258.87)" fill="#F1DCC1"/>
<path d="M706.533 18.082L706.533 270.343L701.928 270.343L701.928 18.082L706.533 18.082Z" fill="#F1DCC1"/>
<rect x="711.139" y="18.082" width="81.3659" height="4.60533" transform="rotate(90 711.139 18.082)" fill="#C67E54"/>
<rect x="711.139" y="13" width="81.3659" height="4.60533" transform="rotate(90 711.139 13)" fill="#C67E54"/>
<rect x="711.139" y="176.293" width="76.8456" height="4.60533" transform="rotate(90 711.139 176.293)" fill="#C67E54"/>
<rect x="711.139" y="187.984" width="76.8456" height="4.60533" transform="rotate(90 711.139 187.984)" fill="#C67E54"/>
<rect x="715.744" y="187.984" width="76.8456" height="4.60533" transform="rotate(90 715.744 187.984)" fill="#AC664C"/>
<rect x="715.744" y="249.83" width="9.04066" height="4.60533" transform="rotate(90 715.744 249.83)" fill="#AC664C"/>
<rect x="711.139" y="249.83" width="9.04066" height="4.60533" transform="rotate(90 711.139 249.83)" fill="#AC664C"/>
<rect x="706.533" y="254.35" width="4.52033" height="4.60533" transform="rotate(90 706.533 254.35)" fill="#AC664C"/>
<rect x="701.928" y="249.83" width="4.52033" height="4.60533" transform="rotate(90 701.928 249.83)" fill="#F1DCC1"/>
<rect x="701.928" y="254.35" width="4.52035" height="432.901" transform="rotate(90 701.928 254.35)" fill="#F1DCC1"/>
<rect x="706.533" y="249.83" width="4.52033" height="4.60533" transform="rotate(90 706.533 249.83)" fill="#AC664C"/>
<rect x="715.744" y="192" width="76.8456" height="4.60533" transform="rotate(90 715.744 192)" fill="#89414E"/>
<rect x="715.744" y="176.293" width="76.8456" height="4.60533" transform="rotate(90 715.744 176.293)" fill="#AC664C"/>
<rect x="711.139" y="135.609" width="9.04066" height="4.60533" transform="rotate(90 711.139 135.609)" fill="#C67E54"/>
<rect x="715.744" y="135.609" width="9.04066" height="4.60533" transform="rotate(90 715.744 135.609)" fill="#89414E"/>
<rect x="711.139" y="158.212" width="4.52033" height="4.60533" transform="rotate(90 711.139 158.212)" fill="#C67E54"/>
<rect x="711.139" y="144.65" width="13.561" height="4.60533" transform="rotate(90 711.139 144.65)" fill="#89414E"/>
<rect x="711.139" y="99.4473" width="36.1626" height="4.60533" transform="rotate(90 711.139 99.4473)" fill="#C67E54"/>
<rect x="715.744" y="99.4473" width="36.1626" height="4.60533" transform="rotate(90 715.744 99.4473)" fill="#AC664C"/>
<rect x="711.139" y="162.732" width="13.561" height="4.60533" transform="rotate(90 711.139 162.732)" fill="#C67E54"/>
<rect x="715.744" y="162.732" width="13.561" height="4.60533" transform="rotate(90 715.744 162.732)" fill="#AC664C"/>
<rect x="18.4214" y="13.5615" width="110.528" height="4.52033" fill="#F1DCC1"/>
<rect x="701.928" y="258.87" width="110.528" height="4.52033" transform="rotate(-180 701.928 258.87)" fill="#F1DCC1"/>
<rect x="13.8159" y="18.082" width="4.60533" height="13.561" fill="#F1DCC1"/>
<rect x="18.4214" y="49.7236" width="4.60533" height="4.52033" fill="#F1DCC1"/>
<rect x="23.0264" y="45.2031" width="4.60533" height="4.52033" fill="#F1DCC1"/>
<rect x="4.60449" y="172.984" width="4.60533" height="85.8862" fill="#89414E"/>
<rect x="13.8159" y="13.5615" width="4.60533" height="4.52033" fill="#C67E54"/>
<rect x="706.533" y="258.87" width="4.60533" height="4.52033" transform="rotate(-180 706.533 258.87)" fill="#C67E54"/>
<rect x="4.60449" y="4.52051" width="151.976" height="4.52033" fill="#AC664C"/>
<rect x="715.744" y="267.911" width="151.976" height="4.52033" transform="rotate(-180 715.744 267.911)" fill="#AC664C"/>
<rect x="666.976" y="267.911" width="151.976" height="4.52033" transform="rotate(-180 666.976 267.911)" fill="#AC664C"/>
<rect x="618.208" y="267.911" width="151.976" height="4.52033" transform="rotate(-180 618.208 267.911)" fill="#AC664C"/>
<rect x="569.441" y="267.911" width="151.976" height="4.52033" transform="rotate(-180 569.441 267.911)" fill="#AC664C"/>
<rect x="520.673" y="267.911" width="151.976" height="4.52033" transform="rotate(-180 520.673 267.911)" fill="#AC664C"/>
<rect x="467.976" y="267.911" width="151.976" height="4.52033" transform="rotate(-180 467.976 267.911)" fill="#AC664C"/>
<rect x="156.581" y="4.52051" width="9.21066" height="4.52033" fill="#89414E"/>
<rect x="317.768" y="267.911" width="9.21066" height="4.52033" transform="rotate(-180 317.768 267.911)" fill="#89414E"/>
<rect x="280.925" y="4.52051" width="9.21066" height="4.52033" fill="#89414E"/>
<rect x="193.424" y="267.911" width="9.21066" height="4.52033" transform="rotate(-180 193.424 267.911)" fill="#89414E"/>
<rect x="386.848" y="4.52051" width="9.21066" height="4.52033" fill="#89414E"/>
<rect x="87.5015" y="267.911" width="9.21066" height="4.52033" transform="rotate(-180 87.5015 267.911)" fill="#89414E"/>
<rect x="655.875" y="4.52051" width="4.60533" height="4.52033" fill="#89414E"/>
<rect x="64.4746" y="267.911" width="4.60533" height="4.52033" transform="rotate(-180 64.4746 267.911)" fill="#89414E"/>
<rect x="396.059" y="4.52051" width="4.60533" height="4.52033" fill="#AC664C"/>
<rect x="78.291" y="267.911" width="4.60533" height="4.52033" transform="rotate(-180 78.291 267.911)" fill="#AC664C"/>
<rect x="660.48" y="4.52051" width="55.264" height="4.52033" fill="#AC664C"/>
<rect x="59.8696" y="267.911" width="55.264" height="4.52033" transform="rotate(-180 59.8696 267.911)" fill="#AC664C"/>
<rect x="706.533" y="9.04102" width="9.21066" height="4.52033" fill="#AC664C"/>
<rect x="13.8154" y="263.391" width="9.21066" height="4.52033" transform="rotate(-180 13.8154 263.391)" fill="#AC664C"/>
<rect x="715.744" y="13.5615" width="85.8862" height="4.60533" transform="rotate(90 715.744 13.5615)" fill="#AC664C"/>
<rect width="46.0533" height="4.52033" transform="matrix(1 0 0 -1 660.48 13.5615)" fill="#C67E54"/>
<rect width="46.0533" height="4.52033" transform="matrix(-1 -8.58092e-08 -8.90667e-08 1 59.8696 258.87)" fill="#C67E54"/>
<rect width="13.816" height="4.52033" transform="matrix(1 0 0 -1 646.663 13.5615)" fill="#89414E"/>
<rect width="13.816" height="4.52033" transform="matrix(-1 -8.58092e-08 -8.90667e-08 1 73.6851 258.87)" fill="#89414E"/>
<rect width="87.5013" height="4.52033" transform="matrix(1 0 0 -1 313.163 13.5615)" fill="#C67E54"/>
<rect width="87.5013" height="4.52033" transform="matrix(1 0 0 -1 399 13.5615)" fill="#C67E54"/>
<rect width="87.5013" height="4.52033" transform="matrix(1 0 0 -1 486 13.5205)" fill="#C67E54"/>
<rect width="87.5013" height="4.52033" transform="matrix(1 0 0 -1 560 13.5205)" fill="#C67E54"/>
<rect width="87.5013" height="4.52033" transform="matrix(-1 -8.58092e-08 -8.90667e-08 1 161.187 258.87)" fill="#C67E54"/>
<rect width="115.133" height="4.52033" transform="matrix(1 0 0 -1 179.608 13.5615)" fill="#C67E54"/>
<rect width="115.133" height="4.52033" transform="matrix(-1 -8.58092e-08 -8.90667e-08 1 294.741 258.87)" fill="#C67E54"/>
<rect width="115.133" height="4.52033" transform="matrix(-1 -8.58092e-08 -8.90667e-08 1 391.133 258.87)" fill="#C67E54"/>
<rect width="115.133" height="4.52033" transform="matrix(-1 -8.58092e-08 -8.90667e-08 1 487.525 258.87)" fill="#C67E54"/>
<rect width="115.133" height="4.52033" transform="matrix(-1 -8.58092e-08 -8.90667e-08 1 583.917 258.87)" fill="#C67E54"/>
<rect width="151.976" height="4.52033" transform="matrix(1 0 0 -1 13.8159 13.5615)" fill="#C67E54"/>
<rect width="151.976" height="4.52033" transform="matrix(-1 -8.58092e-08 -8.90667e-08 1 706.533 258.87)" fill="#C67E54"/>
<rect x="651.269" y="4.52051" width="4.60533" height="4.52033" fill="#AC664C"/>
<rect x="69.0806" y="267.911" width="4.60533" height="4.52033" transform="rotate(-180 69.0806 267.911)" fill="#AC664C"/>
<rect x="308.557" y="4.52051" width="18.4213" height="4.52033" fill="#89414E"/>
<rect x="165.792" y="267.911" width="18.4213" height="4.52033" transform="rotate(-180 165.792 267.911)" fill="#89414E"/>
<rect x="294.741" y="9.04102" width="18.4213" height="4.52033" fill="#89414E"/>
<rect x="179.608" y="263.391" width="18.4213" height="4.52033" transform="rotate(-180 179.608 263.391)" fill="#89414E"/>
<rect x="165.792" y="9.04102" width="13.816" height="4.52033" fill="#89414E"/>
<rect x="308.557" y="263.391" width="13.816" height="4.52033" transform="rotate(-180 308.557 263.391)" fill="#89414E"/>
<rect x="165.792" y="4.52051" width="4.60533" height="4.52033" fill="#AC664C"/>
<rect x="308.557" y="267.911" width="4.60533" height="4.52033" transform="rotate(-180 308.557 267.911)" fill="#AC664C"/>
<rect x="175.002" y="4.52051" width="4.60533" height="4.52033" fill="#AC664C"/>
<rect x="299.346" y="267.911" width="4.60533" height="4.52033" transform="rotate(-180 299.346 267.911)" fill="#AC664C"/>
<rect x="290.136" y="4.52051" width="4.60533" height="4.52033" fill="#AC664C"/>
<rect x="184.213" y="267.911" width="4.60533" height="4.52033" transform="rotate(-180 184.213 267.911)" fill="#AC664C"/>
<rect x="303.952" y="4.52051" width="4.60533" height="4.52033" fill="#AC664C"/>
<rect x="170.397" y="267.911" width="4.60533" height="4.52033" transform="rotate(-180 170.397 267.911)" fill="#AC664C"/>
<rect x="326.979" y="4.52051" width="59.8693" height="4.52033" fill="#AC664C"/>
<rect x="400" y="4.52051" width="59.8693" height="4.52033" fill="#AC664C"/>
<rect x="456" y="4.52051" width="59.8693" height="4.52033" fill="#AC664C"/>
<rect x="512" y="4.52051" width="59.8693" height="4.52033" fill="#AC664C"/>
<rect x="568" y="4.52051" width="59.8693" height="4.52033" fill="#AC664C"/>
<rect x="587" y="4.52051" width="59.8693" height="4.52033" fill="#AC664C"/>
<rect x="147.37" y="267.911" width="59.8693" height="4.52033" transform="rotate(-180 147.37 267.911)" fill="#AC664C"/>
<rect x="184.213" y="4.52051" width="96.712" height="4.52033" fill="#AC664C"/>
<rect x="290.136" y="267.911" width="96.712" height="4.52033" transform="rotate(-180 290.136 267.911)" fill="#AC664C"/>
<rect x="179.608" y="4.52051" width="4.60533" height="4.52033" fill="#89414E"/>
<rect x="294.741" y="267.911" width="4.60533" height="4.52033" transform="rotate(-180 294.741 267.911)" fill="#89414E"/>
<rect x="170.397" y="4.52051" width="4.60533" height="4.52033" fill="#5C2936"/>
<rect x="303.952" y="267.911" width="4.60533" height="4.52033" transform="rotate(-180 303.952 267.911)" fill="#5C2936"/>
<rect x="294.741" y="4.52051" width="4.60533" height="4.52033" fill="#5C2936"/>
<rect x="179.608" y="267.911" width="4.60533" height="4.52033" transform="rotate(-180 179.608 267.911)" fill="#5C2936"/>
<rect x="299.346" y="4.52051" width="4.60533" height="4.52033" fill="#5C2936"/>
<rect x="175.002" y="267.911" width="4.60533" height="4.52033" transform="rotate(-180 175.002 267.911)" fill="#5C2936"/>
<rect x="646.663" y="4.52051" width="4.60533" height="4.52033" fill="#5C2936"/>
<rect x="73.6851" y="267.911" width="4.60533" height="4.52033" transform="rotate(-180 73.6851 267.911)" fill="#5C2936"/>
<rect x="651.269" width="64.4747" height="4.52033" fill="#5C2936"/>
<rect x="69.0806" y="272.432" width="64.4747" height="4.52033" transform="rotate(-180 69.0806 272.432)" fill="#5C2936"/>
<rect x="720.35" y="4.52051" width="144.651" height="4.60533" transform="rotate(90 720.35 4.52051)" fill="#5C2936"/>
<rect x="720.35" y="11" width="144.651" height="4.60533" transform="rotate(90 720.35 11)" fill="#5C2936"/>
<path d="M720.35 4.69141L720.35 267.911L715.744 267.911L715.744 4.69141L720.35 4.69141Z" fill="#5C2936"/>
<rect x="303.952" width="96.712" height="4.52033" fill="#5C2936"/>
<rect x="391" width="96.712" height="4.52033" fill="#5C2936"/>
<rect x="478.048" width="96.712" height="4.52033" fill="#5C2936"/>
<rect x="565.096" width="96.712" height="4.52033" fill="#5C2936"/>
<rect x="170.397" y="272.432" width="96.712" height="4.52033" transform="rotate(-180 170.397 272.432)" fill="#5C2936"/>
<rect x="175.002" width="119.739" height="4.52033" fill="#5C2936"/>
<rect x="299.346" y="272.432" width="119.739" height="4.52033" transform="rotate(-180 299.346 272.432)" fill="#5C2936"/>
<rect x="368.739" y="272.432" width="119.739" height="4.52033" transform="rotate(-180 368.739 272.432)" fill="#5C2936"/>
<rect x="438.131" y="272.432" width="119.739" height="4.52033" transform="rotate(-180 438.131 272.432)" fill="#5C2936"/>
<rect x="507.524" y="272.432" width="119.739" height="4.52033" transform="rotate(-180 507.524 272.432)" fill="#5C2936"/>
<rect x="576.917" y="272.432" width="119.739" height="4.52033" transform="rotate(-180 576.917 272.432)" fill="#5C2936"/>
<rect x="4.60449" width="165.792" height="4.52033" fill="#5C2936"/>
<rect x="715.744" y="272.432" width="165.792" height="4.52033" transform="rotate(-180 715.744 272.432)" fill="#5C2936"/>
<rect x="697.322" y="18.082" width="4.60533" height="4.52033" fill="#F1DCC1"/>
<rect x="702" y="13" width="4.60533" height="4.52033" fill="#C67E54"/>
<rect x="711.139" y="149.171" width="4.60533" height="4.52033" fill="#5C2936"/>
<rect x="711.139" y="144.65" width="4.60533" height="4.52033" fill="#AC664C"/>
<rect x="711.139" y="153.691" width="4.60533" height="4.52033" fill="#AC664C"/>
<rect x="711.139" y="158.212" width="4.60533" height="4.52033" fill="#89414E"/>
<rect x="701.928" y="163.943" width="4.60533" height="90.4066" fill="#F1DCC1"/>
</svg>
