<svg width="234" height="77" viewBox="0 0 234 77" fill="none" xmlns="http://www.w3.org/2000/svg">
<rect x="11.8462" y="8.88461" width="210.269" height="53.3077" fill="#95B053"/>
<rect x="11.8462" width="210.269" height="2.96154" fill="#2E5110"/>
<rect x="11.8462" y="2.96153" width="210.269" height="2.96154" fill="#2E5110"/>
<rect x="11.8462" y="65.1538" width="210.269" height="2.96154" fill="#2E5110"/>
<rect x="11.8462" y="68.1154" width="210.269" height="2.96154" fill="#2E5110"/>
<rect x="5.9231" y="5.92308" width="5.92308" height="5.92308" fill="#2E5110"/>
<rect x="5.9231" y="59.2308" width="5.92308" height="5.92308" fill="#2E5110"/>
<rect x="11.8462" y="5.92308" width="5.92308" height="5.92308" fill="#F3F89C"/>
<rect x="11.8462" y="11.8462" width="5.92308" height="5.92308" fill="#F3F89C"/>
<rect x="5.9231" y="11.8462" width="5.92308" height="5.92308" fill="#F3F89C"/>
<rect x="5.9231" y="17.7692" width="5.92308" height="41.4615" fill="#CBD074"/>
<rect y="11.8462" width="5.92308" height="47.3846" fill="#2E5110"/>
<rect x="228.039" y="11.8462" width="5.92308" height="47.3846" fill="#2E5110"/>
<rect x="222.115" y="5.92308" width="5.92308" height="5.92308" fill="#2E5110"/>
<rect x="222.115" y="11.8462" width="5.92308" height="5.92308" fill="#CBD074"/>
<rect x="17.7693" y="5.92308" width="204.346" height="5.92308" fill="#CBD074"/>
<rect x="222.115" y="17.7692" width="5.92308" height="5.92308" fill="#95B053"/>
<rect x="222.115" y="23.6923" width="5.92308" height="35.5385" fill="#6A8D4C"/>
<rect x="11.8462" y="71.0769" width="210.269" height="5.92308" fill="#E3A469"/>
<rect x="5.9231" y="65.1538" width="5.92308" height="5.92308" fill="#E3A469"/>
<rect x="222.115" y="65.1538" width="5.92308" height="5.92308" fill="#E3A469"/>
<rect x="222.115" y="59.2308" width="5.92308" height="5.92308" fill="#2E5110"/>
<rect x="216.192" y="53.3077" width="5.92308" height="5.92308" fill="#6A8D4C"/>
<rect x="11.8462" y="59.2308" width="210.269" height="5.92308" fill="#6A8D4C"/>
<path d="M34.1059 29.1846H44.3725V26.2513H34.1059V29.1846ZM34.1059 43.8513H44.3725V33.5846H34.1059V43.8513ZM29.7059 48.2513V21.8513H45.0753V25.5179H48.7725V29.9179H45.0753V32.8818H48.7725V44.5846H45.0753V48.2513H29.7059ZM55.3833 48.2513V44.5846H51.7166V29.1846H56.1166V43.8513H66.3833V29.1846H70.7833V48.2513H55.3833ZM75.5607 48.2513V21.8513H79.9607V36.5179H82.894V32.8818H86.5607V29.1846H90.9607V33.5846H87.294V37.2513H83.6273V40.1846H87.294V43.8513H90.9607V48.2513H86.5607V44.5846H82.894V40.9179H79.9607V48.2513H75.5607ZM100.138 43.8513H110.405V40.9179H100.138V43.8513ZM99.4047 48.2513V44.5846H95.7381V40.1846H99.4047V36.5179H110.405V33.5846H99.4047V29.1846H111.108V32.8818H114.805V48.2513H99.4047ZM139.76 48.2513V21.8513H144.16V25.5179H147.826V29.1846H150.76V25.5179H154.426V21.8513H158.826V48.2513H154.426V29.9179H151.493V33.5846H147.093V29.9179H144.16V48.2513H139.76ZM166.17 43.8513H176.437V40.9179H166.17V43.8513ZM165.437 48.2513V44.5846H161.77V40.1846H165.437V36.5179H176.437V33.5846H165.437V29.1846H177.14V32.8818H180.837V48.2513H165.437ZM188.181 40.1846H198.448V33.5846H191.848V37.2513H188.181V40.1846ZM183.781 51.9179V29.1846H188.181V32.8818H191.114V29.1846H199.15V32.8818H202.848V40.9179H199.15V44.5846H188.181V51.9179H183.781Z" fill="#2E5110"/>
</svg>
