<svg width="36" height="36" viewBox="0 0 36 36" fill="none" xmlns="http://www.w3.org/2000/svg">
<path d="M12 1.5H9V3H12V1.5Z" fill="#5C2936"/>
<path d="M27 1.5H24V3H27V1.5Z" fill="#5C2936"/>
<path d="M33 7.5V6H28.5V3H27V10.5H24V3H22.5V6H13.5V3H12V10.5H9V3H7.5V6H3V7.5H1.5V33H3V34.5H33V33H34.5V7.5H33ZM31.5 12V16.5H27V12H31.5ZM31.5 24H27V19.5H31.5V24ZM31.5 31.5H27V27H31.5V31.5ZM4.5 27H9V31.5H4.5V27ZM4.5 19.5H9V24H4.5V19.5ZM24 24H19.5V19.5H24V24ZM16.5 24H12V19.5H16.5V24ZM12 27H16.5V31.5H12V27ZM19.5 27H24V31.5H19.5V27ZM24 16.5H19.5V12H24V16.5ZM16.5 12V16.5H12V12H16.5ZM9 16.5H4.5V12H9V16.5Z" fill="#5C2936"/>
</svg>
