<svg width="64" height="64" viewBox="0 0 64 64" fill="none" xmlns="http://www.w3.org/2000/svg">
<rect x="6" y="3.07715" width="52" height="53" fill="#FDF2DB"/>
<rect x="5.92285" width="5.92308" height="5.92308" fill="#5C2936"/>
<rect x="5.92285" y="53.0771" width="5.92308" height="5.92308" fill="#5C2936"/>
<path d="M11.8457 0H58V5.92308H11.8457V0Z" fill="#5C2936"/>
<path d="M11.8457 53.0771H58V59.0002H11.8457V53.0771Z" fill="#5C2936"/>
<path d="M11.9229 58.0771H58.0771V64.0002H11.9229V58.0771Z" fill="#E3A469"/>
<rect y="5.92285" width="5.92308" height="47.3846" fill="#5C2936"/>
<rect x="58.0381" y="5.92285" width="5.92308" height="47.3846" fill="#5C2936"/>
<g filter="url(#filter0_d_23_403)">
<path d="M36.5 28.5771H38V30.0771H39.5V31.5771H41V33.0771H42.5V34.5771H44V36.0771H45.5V37.5771H47V39.0771H45.5V40.5771H44V42.0771H42.5V40.5771H41V39.0771H39.5V37.5771H38V36.0771H36.5V34.5771H35V33.0771H33.5V31.5771H30.5V33.0771H29V34.5771H27.5V36.0771H26V37.5771H24.5V39.0771H23V40.5771H21.5V42.0771H20V40.5771H18.5V39.0771H17V37.5771H18.5V36.0771H20V34.5771H21.5V33.0771H23V31.5771H24.5V30.0771H26V28.5771H27.5V25.5771H26V24.0771H24.5V22.5771H23V21.0771H21.5V19.5771H20V18.0771H18.5V16.5771H17V15.0771H18.5V13.5771H20V12.0771H21.5V13.5771H23V15.0771H24.5V16.5771H26V18.0771H27.5V19.5771H29V21.0771H30.5V22.5771H33.5V21.0771H35V19.5771H36.5V18.0771H38V16.5771H39.5V15.0771H41V13.5771H42.5V12.0771H44V13.5771H45.5V15.0771H47V16.5771H45.5V18.0771H44V19.5771H42.5V21.0771H41V22.5771H39.5V24.0771H38V25.5771H36.5V28.5771Z" fill="#5C2936"/>
</g>
<rect x="6" y="58.0771" width="5.92308" height="5.92308" fill="#E3A469"/>
<defs>
<filter id="filter0_d_23_403" x="14" y="9.07715" width="36" height="40" filterUnits="userSpaceOnUse" color-interpolation-filters="sRGB">
<feFlood flood-opacity="0" result="BackgroundImageFix"/>
<feColorMatrix in="SourceAlpha" type="matrix" values="0 0 0 0 0 0 0 0 0 0 0 0 0 0 0 0 0 0 127 0" result="hardAlpha"/>
<feOffset dy="4"/>
<feComposite in2="hardAlpha" operator="out"/>
<feColorMatrix type="matrix" values="0 0 0 0 0.890196 0 0 0 0 0.643137 0 0 0 0 0.411765 0 0 0 1 0"/>
<feBlend mode="normal" in2="BackgroundImageFix" result="effect1_dropShadow_23_403"/>
<feBlend mode="normal" in="SourceGraphic" in2="effect1_dropShadow_23_403" result="shape"/>
</filter>
</defs>
</svg>
