<svg width="234" height="77" viewBox="0 0 234 77" fill="none" xmlns="http://www.w3.org/2000/svg">
<rect x="11.8462" y="8.88464" width="210.269" height="53.3077" fill="#AC664C"/>
<rect x="11.8462" width="210.269" height="2.96154" fill="#5C2936"/>
<rect x="11.8462" y="2.96155" width="210.269" height="2.96154" fill="#5C2936"/>
<rect x="11.8462" y="65.1539" width="210.269" height="2.96154" fill="#5C2936"/>
<rect x="11.8462" y="68.1154" width="210.269" height="2.96154" fill="#5C2936"/>
<rect x="5.92285" y="5.9231" width="5.92308" height="5.92308" fill="#5C2936"/>
<rect x="5.92285" y="59.2308" width="5.92308" height="5.92308" fill="#5C2936"/>
<rect x="11.8462" y="5.9231" width="5.92308" height="5.92308" fill="#FFD991"/>
<rect x="11.8462" y="11.8461" width="5.92308" height="5.92308" fill="#FFD991"/>
<rect x="5.92285" y="11.8461" width="5.92308" height="5.92308" fill="#FFD991"/>
<rect x="5.92285" y="17.7692" width="5.92308" height="41.4615" fill="#DA9268"/>
<rect y="11.8461" width="5.92308" height="47.3846" fill="#5C2936"/>
<rect x="228.039" y="11.8461" width="5.92308" height="47.3846" fill="#5C2936"/>
<rect x="222.115" y="5.9231" width="5.92308" height="5.92308" fill="#5C2936"/>
<rect x="222.115" y="11.8461" width="5.92308" height="5.92308" fill="#DA9268"/>
<rect x="17.769" y="5.9231" width="204.346" height="5.92308" fill="#DA9268"/>
<rect x="222.115" y="17.7692" width="5.92308" height="5.92308" fill="#AC664C"/>
<rect x="222.115" y="23.6923" width="5.92308" height="35.5385" fill="#915644"/>
<rect x="11.8462" y="71.0769" width="210.269" height="5.92308" fill="#E3A469"/>
<rect x="5.92285" y="65.1539" width="5.92308" height="5.92308" fill="#E3A469"/>
<rect x="222.115" y="65.1539" width="5.92308" height="5.92308" fill="#E3A469"/>
<rect x="222.115" y="59.2308" width="5.92308" height="5.92308" fill="#5C2936"/>
<rect x="216.192" y="53.3077" width="5.92308" height="5.92308" fill="#915644"/>
<rect x="11.8462" y="59.2308" width="210.269" height="5.92308" fill="#915644"/>
<path d="M42.7624 48.3667V44.7H39.0957V25.6333H42.7624V21.9667H54.4652V25.6333H58.1624V30.0333H53.7624V26.3667H43.4957V43.9667H53.7624V40.3H58.1624V44.7H54.4652V48.3667H42.7624ZM61.1065 48.3667V29.3H65.5065V32.9972H68.4398V29.3H76.4759V32.9972H80.1731V37.3667H75.7731V33.7H69.1731V37.3667H65.5065V48.3667H61.1065ZM87.5172 36.6333H97.7839V33.7H87.5172V36.6333ZM86.7839 48.3667V44.7H83.1172V32.9972H86.7839V29.3H98.4867V32.9972H102.184V41.0333H87.5172V43.9667H102.184V48.3667H86.7839ZM109.528 43.9667H119.795V37.3667H116.128V33.7H109.528V43.9667ZM108.795 48.3667V44.7H105.128V32.9972H108.795V29.3H116.861V32.9972H119.795V21.9667H124.195V48.3667H108.795ZM132.639 26.3667V21.9667H137.039V26.3667H132.639ZM136.305 48.3667V44.7H132.639V33.7H128.972V29.3H137.039V43.9667H144.372V48.3667H136.305ZM158.316 48.3667V44.7H154.649V33.7H150.983V29.3H154.649V21.9667H159.049V29.3H162.716V33.7H159.049V43.9667H166.383V48.3667H158.316ZM171.16 48.3667V43.9667H185.827V41.0333H174.827V37.3667H171.16V32.9972H174.827V29.3H190.227V33.7H175.56V36.6333H186.53V40.3H190.227V44.7H186.53V48.3667H171.16Z" fill="#3E0B18"/>
</svg>
