<svg width="418" height="77" viewBox="0 0 418 77" fill="none" xmlns="http://www.w3.org/2000/svg">
<rect x="11.8462" y="8.88461" width="393.885" height="53.3077" fill="#AC664C"/>
<rect x="11.8462" width="393.885" height="2.96154" fill="#5C2936"/>
<rect x="11.8462" y="2.96155" width="393.885" height="2.96154" fill="#5C2936"/>
<rect x="11.8462" y="65.1538" width="393.885" height="2.96154" fill="#5C2936"/>
<rect x="11.8462" y="68.1154" width="393.885" height="2.96154" fill="#5C2936"/>
<rect x="5.92285" y="5.92307" width="5.92308" height="5.92308" fill="#5C2936"/>
<rect x="5.92285" y="59.2308" width="5.92308" height="5.92308" fill="#5C2936"/>
<rect x="11.8462" y="5.92307" width="5.92308" height="5.92308" fill="#FFD991"/>
<rect x="11.8462" y="11.8462" width="5.92308" height="5.92308" fill="#FFD991"/>
<rect x="5.92285" y="11.8462" width="5.92308" height="5.92308" fill="#FFD991"/>
<rect x="5.92285" y="17.7692" width="5.92308" height="41.4615" fill="#DA9268"/>
<rect y="11.8462" width="5.92308" height="47.3846" fill="#5C2936"/>
<rect x="411.654" y="11.8462" width="5.92308" height="47.3846" fill="#5C2936"/>
<rect x="405.731" y="5.92307" width="5.92308" height="5.92308" fill="#5C2936"/>
<rect x="405.731" y="11.8462" width="5.92308" height="5.92308" fill="#DA9268"/>
<rect x="17.769" y="5.92307" width="387.962" height="5.92308" fill="#DA9268"/>
<rect x="405.731" y="17.7692" width="5.92308" height="5.92308" fill="#AC664C"/>
<rect x="405.731" y="23.6923" width="5.92308" height="35.5385" fill="#915644"/>
<rect x="11.8462" y="71.0769" width="393.885" height="5.92308" fill="#E3A469"/>
<rect x="5.92285" y="65.1538" width="5.92308" height="5.92308" fill="#E3A469"/>
<rect x="405.731" y="65.1538" width="5.92308" height="5.92308" fill="#E3A469"/>
<rect x="405.731" y="59.2308" width="5.92308" height="5.92308" fill="#5C2936"/>
<rect x="399.808" y="53.3077" width="5.92308" height="5.92308" fill="#915644"/>
<rect x="11.8462" y="59.2308" width="393.885" height="5.92308" fill="#915644"/>
<path d="M101.646 48.2514V21.8514H106.046V29.1848H112.646V25.5181H116.313V21.8514H120.713V26.2514H117.015V29.9181H113.379V32.882H117.015V36.5181H120.713V48.2514H116.313V37.2514H112.646V33.5848H106.046V48.2514H101.646ZM129.157 26.2514V21.8514H133.557V26.2514H129.157ZM132.823 48.2514V44.5848H129.157V33.5848H125.49V29.1848H133.557V43.8514H140.89V48.2514H132.823ZM145.668 48.2514V29.1848H150.068V32.882H153.001V29.1848H161.037V32.882H164.734V37.2514H160.334V33.5848H153.734V37.2514H150.068V48.2514H145.668ZM173.178 26.2514V21.8514H177.578V26.2514H173.178ZM176.845 48.2514V44.5848H173.178V33.5848H169.512V29.1848H177.578V43.8514H184.912V48.2514H176.845ZM189.689 48.2514V29.1848H197.756V32.882H200.689V29.1848H205.058V32.882H208.756V48.2514H204.356V33.5848H201.422V40.9181H197.022V33.5848H194.089V48.2514H189.689ZM233.71 48.2514V21.8514H238.11V29.1848H248.377V21.8514H252.777V48.2514H248.377V33.5848H238.11V48.2514H233.71ZM260.121 43.8514H270.388V40.9181H260.121V43.8514ZM259.388 48.2514V44.5848H255.721V40.1848H259.388V36.5181H270.388V33.5848H259.388V29.1848H271.091V32.882H274.788V48.2514H259.388ZM282.132 43.8514H292.399V37.2514H288.732V33.5848H282.132V43.8514ZM281.399 48.2514V44.5848H277.732V32.882H281.399V29.1848H289.465V32.882H292.399V21.8514H296.799V48.2514H281.399ZM305.243 26.2514V21.8514H309.643V26.2514H305.243ZM308.909 48.2514V44.5848H305.243V33.5848H301.576V29.1848H309.643V43.8514H316.976V48.2514H308.909ZM326.153 43.8514H336.42V40.9181H326.153V43.8514ZM325.42 48.2514V44.5848H321.753V40.1848H325.42V36.5181H336.42V33.5848H325.42V29.1848H337.123V32.882H340.82V48.2514H325.42ZM343.764 48.2514V21.8514H348.164V32.882H351.098V29.1848H359.134V32.882H362.831V48.2514H358.431V33.5848H351.831V37.2514H348.164V48.2514H343.764Z" fill="#3E0B18"/>
<path d="M86.1152 42V45H83.1152V46.5H81.6152V49.5H78.6152V46.5H77.1152V45H74.1152V42H77.1152V40.5H78.6152V37.5H81.6152V40.5H83.1152V42H86.1152Z" fill="#3E0B18"/>
<path d="M86.1152 21V24H83.1152V25.5H81.6152V28.5H78.6152V25.5H77.1152V24H74.1152V21H77.1152V19.5H78.6152V16.5H81.6152V19.5H83.1152V21H86.1152Z" fill="#3E0B18"/>
<path d="M77.1152 31.5V34.5H74.1152V36H71.1152V37.5H69.6152V39H68.1152V42H66.6152V45H63.6152V42H62.1152V39H60.6152V37.5H59.1152V36H56.1152V34.5H53.1152V31.5H56.1152V30H59.1152V28.5H60.6152V27H62.1152V24H63.6152V21H66.6152V24H68.1152V27H69.6152V28.5H71.1152V30H74.1152V31.5H77.1152Z" fill="#3E0B18"/>
</svg>
