<svg width="205" height="72" viewBox="0 0 205 72" fill="none" xmlns="http://www.w3.org/2000/svg">
<rect x="11.8462" y="8.88477" width="183.615" height="53.3077" fill="#95B053"/>
<rect x="11.8462" width="180.654" height="2.96154" fill="#2E5110"/>
<rect x="11.8462" y="2.96191" width="180.654" height="2.96154" fill="#2E5110"/>
<rect x="11.8462" y="65.1543" width="180.654" height="2.96154" fill="#2E5110"/>
<rect x="11.8462" y="68.1152" width="180.654" height="2.96154" fill="#2E5110"/>
<rect x="5.92285" y="5.92285" width="5.92308" height="5.92308" fill="#2E5110"/>
<rect x="5.92285" y="59.2305" width="5.92308" height="5.92308" fill="#2E5110"/>
<rect x="11.8462" y="5.92285" width="5.92308" height="5.92308" fill="#F3F89C"/>
<rect x="11.8462" y="11.8457" width="5.92308" height="5.92308" fill="#F3F89C"/>
<rect x="5.92285" y="11.8457" width="5.92308" height="5.92308" fill="#F3F89C"/>
<rect x="5.92285" y="17.7695" width="5.92308" height="41.4615" fill="#CBD074"/>
<rect y="11.8457" width="5.92308" height="47.3846" fill="#2E5110"/>
<rect x="198.423" y="11.8457" width="5.92308" height="47.3846" fill="#2E5110"/>
<rect x="192.5" y="5.92285" width="5.92308" height="5.92308" fill="#2E5110"/>
<rect x="192.5" y="11.8457" width="5.92308" height="5.92308" fill="#CBD074"/>
<rect x="17.769" y="5.92285" width="174.731" height="5.92308" fill="#CBD074"/>
<rect x="192.5" y="17.7695" width="5.92308" height="5.92308" fill="#95B053"/>
<rect x="192.5" y="23.6924" width="5.92308" height="35.5385" fill="#6A8D4C"/>
<rect x="192.5" y="59.2305" width="5.92308" height="5.92308" fill="#2E5110"/>
<rect x="186.577" y="53.3076" width="5.92308" height="5.92308" fill="#6A8D4C"/>
<rect x="11.8462" y="59.2305" width="180.654" height="5.92308" fill="#6A8D4C"/>
<path d="M51.1398 47H47.4731V21.3333H51.1398V25H54.8065V28.6667H58.4731V25H62.1398V21.3333H65.8065V47H62.1398V28.6667H58.4731V32.3333H54.8065V28.6667H51.1398V47ZM87.8172 47H73.1506V43.3333H69.4839V28.6667H73.1506V43.3333H84.1506V28.6667H87.8172V47ZM107.995 47H100.661V43.3333H96.9946V25H93.328V21.3333H100.661V43.3333H107.995V47ZM131.839 47H117.172V43.3333H128.172V39.6667H117.172V43.3333H113.505V39.6667H117.172V36H128.172V32.3333H117.172V28.6667H128.172V32.3333H131.839V47ZM144.683 25H141.016V21.3333H144.683V25ZM152.016 47H144.683V43.3333H141.016V32.3333H137.349V28.6667H144.683V43.3333H152.016V47Z" fill="#2E5110"/>
</svg>
