<svg width="234" height="77" viewBox="0 0 234 77" fill="none" xmlns="http://www.w3.org/2000/svg">
<rect x="11.8462" y="8.88461" width="210.269" height="53.3077" fill="#AC664C"/>
<rect x="11.8462" width="210.269" height="2.96154" fill="#5C2936"/>
<rect x="11.8462" y="2.96154" width="210.269" height="2.96154" fill="#5C2936"/>
<rect x="11.8462" y="65.1538" width="210.269" height="2.96154" fill="#5C2936"/>
<rect x="11.8462" y="68.1154" width="210.269" height="2.96154" fill="#5C2936"/>
<rect x="5.92285" y="5.92308" width="5.92308" height="5.92308" fill="#5C2936"/>
<rect x="5.92285" y="59.2308" width="5.92308" height="5.92308" fill="#5C2936"/>
<rect x="11.8462" y="5.92308" width="5.92308" height="5.92308" fill="#FFD991"/>
<rect x="11.8462" y="11.8462" width="5.92308" height="5.92308" fill="#FFD991"/>
<rect x="5.92285" y="11.8462" width="5.92308" height="5.92308" fill="#FFD991"/>
<rect x="5.92285" y="17.7692" width="5.92308" height="41.4615" fill="#DA9268"/>
<rect y="11.8462" width="5.92308" height="47.3846" fill="#5C2936"/>
<rect x="228.039" y="11.8462" width="5.92308" height="47.3846" fill="#5C2936"/>
<rect x="222.115" y="5.92308" width="5.92308" height="5.92308" fill="#5C2936"/>
<rect x="222.115" y="11.8462" width="5.92308" height="5.92308" fill="#DA9268"/>
<rect x="17.769" y="5.92308" width="204.346" height="5.92308" fill="#DA9268"/>
<rect x="222.115" y="17.7692" width="5.92308" height="5.92308" fill="#AC664C"/>
<rect x="222.115" y="23.6923" width="5.92308" height="35.5385" fill="#915644"/>
<rect x="222.115" y="59.2308" width="5.92308" height="5.92308" fill="#5C2936"/>
<rect x="216.192" y="53.3077" width="5.92308" height="5.92308" fill="#915644"/>
<rect x="11.8462" y="59.2308" width="210.269" height="5.92308" fill="#915644"/>
<path d="M89.7731 48.3667V44.7H86.1065V40.3H90.5065V43.9667H100.773V33.7H89.7731V30.0333H86.1065V25.6333H89.7731V21.9667H105.173V26.3667H90.5065V29.3H101.476V32.9972H105.173V44.7H101.476V48.3667H89.7731ZM112.517 43.9667H122.784V41.0333H112.517V43.9667ZM111.784 48.3667V44.7H108.117V40.3H111.784V36.6333H122.784V33.7H111.784V29.3H123.487V32.9972H127.184V48.3667H111.784ZM139.295 48.3667V44.7H135.628V26.3667H131.961V21.9667H140.028V43.9667H147.361V48.3667H139.295ZM157.639 26.3667V21.9667H162.039V26.3667H157.639ZM161.305 48.3667V44.7H157.639V33.7H153.972V29.3H162.039V43.9667H169.372V48.3667H161.305ZM174.149 48.3667V29.3H189.519V32.9972H193.216V48.3667H188.816V33.7H178.549V48.3667H174.149Z" fill="#3E0B18"/>
<path d="M61 47.1152V50.1152H59.5V51.6152H41.5V50.1152H40V26.1152H41.5V24.6152H46V47.1152H61Z" fill="#3E0B18"/>
<path d="M70 27.6152V44.1152H68.5V45.6152H49V44.1152H47.5V20.1152H49V18.6152H61V27.6152H70Z" fill="#3E0B18"/>
<path d="M70 24.6152V26.1152H62.5V18.6152H64V20.1152H65.5V21.6152H67V23.1152H68.5V24.6152H70Z" fill="#3E0B18"/>
</svg>
