<svg width="205" height="72" viewBox="0 0 205 72" fill="none" xmlns="http://www.w3.org/2000/svg">
<rect x="11.8462" y="8.88477" width="183.615" height="53.3077" fill="#95B053"/>
<rect x="11.8462" width="180.654" height="2.96154" fill="#2E5110"/>
<rect x="11.8462" y="2.96191" width="180.654" height="2.96154" fill="#2E5110"/>
<rect x="11.8462" y="65.1543" width="180.654" height="2.96154" fill="#2E5110"/>
<rect x="11.8462" y="68.1152" width="180.654" height="2.96154" fill="#2E5110"/>
<rect x="5.92285" y="5.92285" width="5.92308" height="5.92308" fill="#2E5110"/>
<rect x="5.92285" y="59.2305" width="5.92308" height="5.92308" fill="#2E5110"/>
<rect x="11.8462" y="5.92285" width="5.92308" height="5.92308" fill="#F3F89C"/>
<rect x="11.8462" y="11.8457" width="5.92308" height="5.92308" fill="#F3F89C"/>
<rect x="5.92285" y="11.8457" width="5.92308" height="5.92308" fill="#F3F89C"/>
<rect x="5.92285" y="17.7695" width="5.92308" height="41.4615" fill="#CBD074"/>
<rect y="11.8457" width="5.92308" height="47.3846" fill="#2E5110"/>
<rect x="198.423" y="11.8457" width="5.92308" height="47.3846" fill="#2E5110"/>
<rect x="192.5" y="5.92285" width="5.92308" height="5.92308" fill="#2E5110"/>
<rect x="192.5" y="11.8457" width="5.92308" height="5.92308" fill="#CBD074"/>
<rect x="17.769" y="5.92285" width="174.731" height="5.92308" fill="#CBD074"/>
<rect x="192.5" y="17.7695" width="5.92308" height="5.92308" fill="#95B053"/>
<rect x="192.5" y="23.6924" width="5.92308" height="35.5385" fill="#6A8D4C"/>
<rect x="192.5" y="59.2305" width="5.92308" height="5.92308" fill="#2E5110"/>
<rect x="186.577" y="53.3076" width="5.92308" height="5.92308" fill="#6A8D4C"/>
<rect x="11.8462" y="59.2305" width="180.654" height="5.92308" fill="#6A8D4C"/>
<path d="M62.1398 47H51.1398V43.3333H47.4731V39.6667H51.1398V43.3333H62.1398V32.3333H51.1398V28.6667H47.4731V25H51.1398V21.3333H65.8065V25H51.1398V28.6667H62.1398V32.3333H65.8065V43.3333H62.1398V47ZM85.9839 47H78.6506V43.3333H74.9839V32.3333H71.3172V28.6667H74.9839V21.3333H78.6506V28.6667H82.3172V32.3333H78.6506V43.3333H85.9839V47ZM109.828 47H95.1613V43.3333H106.161V39.6667H95.1613V43.3333H91.4946V39.6667H95.1613V36H106.161V32.3333H95.1613V28.6667H106.161V32.3333H109.828V47ZM117.172 47H113.505V28.6667H117.172V32.3333H120.839V28.6667H128.172V32.3333H131.839V36H128.172V32.3333H120.839V36H117.172V47ZM152.016 47H144.683V43.3333H141.016V32.3333H137.349V28.6667H141.016V21.3333H144.683V28.6667H148.349V32.3333H144.683V43.3333H152.016V47Z" fill="#2E5110"/>
</svg>
