<svg width="428" height="213" viewBox="0 0 428 213" fill="none" xmlns="http://www.w3.org/2000/svg">
<path d="M140.603 20.9177C139.122 20.9177 138.027 20.5443 137.319 19.7974C136.611 19.0377 136.257 17.9946 136.257 16.6683C136.257 15.7411 136.398 14.8976 136.682 14.1379C136.965 13.3781 137.358 12.7278 137.86 12.187C138.375 11.6462 138.993 11.2277 139.714 10.9315C140.435 10.6353 141.24 10.4872 142.129 10.4872C142.631 10.4872 143.101 10.5452 143.539 10.6611C143.99 10.7769 144.382 10.9508 144.717 11.1826C145.052 11.4015 145.316 11.6848 145.509 12.0325C145.702 12.3673 145.799 12.7665 145.799 13.2301C145.799 13.6292 145.715 14.0284 145.548 14.4276C145.38 14.8268 145.052 15.1938 144.563 15.5286C144.086 15.8506 143.404 16.1274 142.515 16.3592C141.639 16.5781 140.493 16.7133 139.077 16.7648C139.064 16.8421 139.058 16.9065 139.058 16.958C139.058 16.9966 139.058 17.0417 139.058 17.0932C139.058 17.634 139.206 18.0461 139.502 18.3294C139.798 18.6127 140.287 18.7544 140.97 18.7544C141.24 18.7544 141.485 18.7286 141.704 18.6771C141.936 18.6256 142.155 18.5354 142.361 18.4067C142.58 18.265 142.792 18.0912 142.998 17.8852C143.217 17.6662 143.455 17.3894 143.713 17.0546L145.47 18.1942C145.213 18.5676 144.93 18.9218 144.621 19.2566C144.324 19.5785 143.983 19.8682 143.597 20.1258C143.211 20.3704 142.773 20.5636 142.283 20.7053C141.794 20.8469 141.234 20.9177 140.603 20.9177ZM141.839 12.4767C141.221 12.4767 140.693 12.6635 140.255 13.0369C139.817 13.3975 139.508 14.0091 139.328 14.8719L139.27 15.1423C140.159 15.0908 140.854 15.0071 141.356 14.8912C141.871 14.7753 142.251 14.6401 142.496 14.4856C142.753 14.3311 142.914 14.1636 142.979 13.9834C143.043 13.8031 143.075 13.6357 143.075 13.4812C143.075 12.8115 142.663 12.4767 141.839 12.4767Z" fill="#5C2936"/>
<path d="M126.452 6.39185H129.272L128.171 13.0944H128.268C128.641 12.2832 129.073 11.6457 129.562 11.1822C130.064 10.7186 130.714 10.4868 131.513 10.4868C132.002 10.4868 132.414 10.5641 132.749 10.7186C133.097 10.8731 133.38 11.0856 133.599 11.356C133.818 11.6135 133.979 11.9162 134.082 12.2638C134.185 12.6115 134.236 12.9785 134.236 13.3648C134.236 13.6481 134.217 13.9379 134.178 14.234C134.153 14.5302 134.101 14.9101 134.024 15.3737L133.135 20.6855H130.315L131.262 15.026C131.287 14.8457 131.313 14.6654 131.339 14.4852C131.378 14.292 131.397 14.0731 131.397 13.8284C131.397 13.6996 131.378 13.5644 131.339 13.4228C131.3 13.2811 131.236 13.1524 131.146 13.0365C131.056 12.9206 130.933 12.8304 130.779 12.7661C130.637 12.6888 130.457 12.6502 130.238 12.6502C129.903 12.6502 129.613 12.7274 129.369 12.8819C129.124 13.0365 128.892 13.2618 128.673 13.558C128.532 13.7512 128.358 14.0216 128.152 14.3693C127.959 14.7041 127.83 15.0775 127.765 15.4896L126.896 20.6855H124.076L126.452 6.39185Z" fill="#5C2936"/>
<path d="M120.259 9.55983L118.404 20.6857H115.546L117.4 9.55983H113.498L113.884 7.20331H124.547L124.16 9.55983H120.259Z" fill="#5C2936"/>
<path d="M283.342 24.213C282.994 24.213 282.678 24.155 282.395 24.0391C282.112 23.9232 281.848 23.7623 281.603 23.5562C281.358 23.3502 281.12 23.0991 280.888 22.8029C280.657 22.5196 280.418 22.1977 280.174 21.8371L279.382 20.6975L281.313 19.3647L283.303 21.9916L283.535 21.8951L285.119 12.3531H281.97L282.337 10.1511H285.486L285.737 8.64444C285.878 7.80743 286.226 7.13137 286.78 6.61629C287.333 6.08832 288.132 5.82434 289.175 5.82434H292.613L292.246 8.02634H288.653L288.306 10.1511H291.898L291.531 12.3531H287.919L286.451 21.1417C286.271 22.2234 285.911 23.0025 285.37 23.479C284.829 23.9683 284.153 24.213 283.342 24.213Z" fill="#5C2936"/>
<path d="M273.536 20.3494C272.171 20.3494 271.115 19.9695 270.368 19.2098C269.621 18.4371 269.248 17.3876 269.248 16.0613C269.248 15.1084 269.383 14.2521 269.654 13.4923C269.937 12.7325 270.323 12.0887 270.813 11.5607C271.315 11.0328 271.907 10.6271 272.59 10.3438C273.285 10.0605 274.051 9.91888 274.888 9.91888C276.253 9.91888 277.309 10.3052 278.056 11.0778C278.803 11.8376 279.176 12.8806 279.176 14.207C279.176 15.1599 279.035 16.0162 278.751 16.776C278.481 17.5357 278.095 18.1796 277.592 18.7076C277.103 19.2355 276.511 19.6412 275.815 19.9245C275.133 20.2078 274.373 20.3494 273.536 20.3494ZM273.749 18.244C274.367 18.244 274.869 18.0573 275.255 17.6838C275.654 17.3104 275.912 16.776 276.028 16.0806L276.279 14.574C276.305 14.4581 276.324 14.3293 276.337 14.1877C276.363 14.0331 276.376 13.8979 276.376 13.782C276.376 13.1897 276.221 12.7519 275.912 12.4686C275.616 12.1724 275.204 12.0243 274.676 12.0243C274.058 12.0243 273.549 12.211 273.15 12.5845C272.764 12.9579 272.512 13.4923 272.397 14.1877L272.145 15.6943C272.12 15.8102 272.094 15.9454 272.068 16.0999C272.055 16.2416 272.049 16.3704 272.049 16.4862C272.049 17.0786 272.197 17.5229 272.493 17.819C272.802 18.1023 273.221 18.244 273.749 18.244Z" fill="#5C2936"/>
<path d="M160.497 10.0078H161.804L162.89 18.6006H163.056L164.676 10.0078H166.296L167.916 18.6006H168.082L169.168 10.0078H170.439L168.984 19.9493H167.069L165.56 11.6262H165.413L163.866 19.9493H161.951L160.497 10.0078Z" fill="#5C2936"/>
<path d="M180.766 20.7777C179.223 20.7777 178.083 20.4218 177.345 19.71C176.607 18.9858 176.238 17.9917 176.238 16.7275C176.238 15.8438 176.386 15.0399 176.681 14.3158C176.976 13.5917 177.385 12.9718 177.909 12.4564C178.445 11.9409 179.089 11.542 179.841 11.2597C180.592 10.9774 181.43 10.8363 182.356 10.8363C182.879 10.8363 183.369 10.8915 183.825 11.002C184.295 11.1124 184.704 11.2781 185.053 11.499C185.402 11.7077 185.677 11.9777 185.878 12.3091C186.079 12.6282 186.18 13.0087 186.18 13.4505C186.18 13.831 186.093 14.2115 185.918 14.5919C185.744 14.9724 185.402 15.3222 184.892 15.6413C184.395 15.9482 183.684 16.212 182.759 16.433C181.846 16.6416 180.652 16.7705 179.176 16.8196C179.163 16.8932 179.156 16.9546 179.156 17.0037C179.156 17.0405 179.156 17.0834 179.156 17.1325C179.156 17.648 179.311 18.0408 179.619 18.3108C179.928 18.5808 180.438 18.7158 181.149 18.7158C181.43 18.7158 181.685 18.6913 181.913 18.6422C182.155 18.5931 182.383 18.5072 182.598 18.3844C182.826 18.2494 183.047 18.0837 183.262 17.8874C183.49 17.6787 183.738 17.4148 184.006 17.0957L185.838 18.1819C185.569 18.5378 185.274 18.8754 184.952 19.1945C184.644 19.5013 184.288 19.7775 183.886 20.0229C183.483 20.2561 183.027 20.4402 182.517 20.5752C182.007 20.7102 181.424 20.7777 180.766 20.7777ZM182.054 12.7325C181.41 12.7325 180.86 12.9105 180.404 13.2664C179.948 13.6101 179.626 14.1931 179.438 15.0154L179.378 15.2731C180.303 15.224 181.028 15.1442 181.551 15.0338C182.088 14.9233 182.484 14.7945 182.738 14.6472C183.007 14.4999 183.175 14.3403 183.242 14.1685C183.309 13.9967 183.342 13.8371 183.342 13.6898C183.342 13.0516 182.913 12.7325 182.054 12.7325Z" fill="#5C2936"/>
<path d="M198.461 17.9965L198.404 18.0053C198.141 18.8402 197.772 19.5351 197.297 20.0899C196.832 20.63 196.167 20.9664 195.302 21.0989C194.309 21.251 193.496 21.0498 192.864 20.4952C192.245 19.9387 191.838 19.024 191.643 17.7512C191.541 17.0893 191.509 16.3711 191.547 15.5967C191.596 14.8077 191.748 14.0613 192.005 13.3575C192.275 12.6518 192.677 12.0431 193.211 11.5314C193.743 11.007 194.441 10.6785 195.307 10.5459C196.033 10.4348 196.663 10.5077 197.197 10.7645C197.742 11.0067 198.173 11.4358 198.488 12.0518L198.546 12.043L198.639 5.89281L200.129 5.6647L199.925 20.1562L198.436 20.3843L198.461 17.9965ZM195.615 19.7026C196.023 19.6402 196.411 19.496 196.78 19.2701C197.147 19.0314 197.474 18.6949 197.759 18.2604C197.971 17.9413 198.143 17.5763 198.275 17.1652C198.42 16.7521 198.496 16.3106 198.502 15.8407L198.531 13.6085C198.541 12.9036 198.294 12.4007 197.792 12.0998C197.301 11.7843 196.686 11.683 195.948 11.7961C194.993 11.9423 194.286 12.3437 193.827 13.0004C193.38 13.6551 193.15 14.4523 193.138 15.3922L193.119 16.802C193.121 16.9841 193.126 17.1461 193.135 17.2881C193.142 17.4173 193.155 17.5456 193.174 17.6729C193.288 18.4111 193.548 18.964 193.956 19.3314C194.375 19.6841 194.928 19.8078 195.615 19.7026Z" fill="#5C2936"/>
<path d="M210.162 16.7966L210.029 16.773C209.67 17.3237 209.228 17.7487 208.704 18.0478C208.195 18.3365 207.547 18.4109 206.761 18.2711C206.216 18.1741 205.733 17.9836 205.313 17.6995C204.905 17.4177 204.574 17.0383 204.319 16.5613C204.076 16.0865 203.917 15.5089 203.842 14.8285C203.78 14.1503 203.827 13.3675 203.985 12.4801C204.143 11.5926 204.368 10.8414 204.661 10.2264C204.966 9.61361 205.315 9.12625 205.706 8.76426C206.11 8.40454 206.552 8.16272 207.032 8.03882C207.524 7.91718 208.043 7.90485 208.588 8.00185C208.981 8.07178 209.321 8.18452 209.607 8.34008C209.893 8.49564 210.135 8.68247 210.331 8.90057C210.541 9.12092 210.705 9.37253 210.825 9.65542C210.96 9.92788 211.064 10.2212 211.139 10.5353L211.272 10.559L212.348 4.51159L215.163 5.01235L212.659 19.085L209.844 18.5843L210.162 16.7966ZM208.367 16.3007C208.862 16.3886 209.308 16.3438 209.706 16.166C210.116 15.9906 210.368 15.6429 210.46 15.1231L210.975 12.2325C211.067 11.7127 210.951 11.2997 210.626 10.9934C210.314 10.6893 209.911 10.4933 209.416 10.4054C208.782 10.2926 208.259 10.4022 207.847 10.7344C207.437 11.0538 207.171 11.5558 207.049 12.2404L206.779 13.7618C206.657 14.4464 206.732 15.0157 207.004 15.4696C207.279 15.9109 207.733 16.1879 208.367 16.3007Z" fill="#5C2936"/>
<path d="M224.762 10.0649C224.186 9.99902 223.789 9.84345 223.571 9.59815C223.367 9.34153 223.284 9.04689 223.322 8.71426C223.329 8.65029 223.345 8.56786 223.37 8.46697C223.396 8.35329 223.441 8.1835 223.506 7.9576C223.617 7.55552 223.825 7.26183 224.132 7.07653C224.438 6.89123 224.879 6.8315 225.455 6.89735C226.03 6.9632 226.42 7.12444 226.624 7.38106C226.842 7.62636 226.932 7.91533 226.894 8.24797C226.887 8.31193 226.87 8.40076 226.844 8.51444C226.82 8.61533 226.775 8.77872 226.711 9.00462C226.6 9.4067 226.391 9.70039 226.085 9.8857C225.779 10.071 225.338 10.1307 224.762 10.0649ZM222.667 21.4125C221.874 21.3218 221.302 21.049 220.952 20.5943C220.604 20.1267 220.47 19.5411 220.551 18.8375C220.575 18.62 220.612 18.4103 220.661 18.2086C220.71 18.0068 220.796 17.712 220.918 17.3242L222.155 13.3052L219.162 12.9627L219.777 10.8167L225.61 11.484L223.233 19.1831L223.548 19.3164L226.549 16.8794L227.928 18.4176L226.604 19.627C225.868 20.2816 225.191 20.7615 224.573 21.0667C223.967 21.3733 223.332 21.4886 222.667 21.4125Z" fill="#5C2936"/>
<path d="M232.573 19.9493V10.2338H234.19V11.8154H234.271C234.378 11.5769 234.513 11.3509 234.675 11.1375C234.836 10.9116 235.032 10.717 235.261 10.5538C235.503 10.3907 235.786 10.2589 236.109 10.1584C236.433 10.058 236.81 10.0078 237.241 10.0078C238.332 10.0078 239.208 10.3342 239.868 10.9869C240.528 11.6271 240.858 12.5371 240.858 13.717V19.9493H239.241V13.9806C239.241 13.0894 239.033 12.4304 238.615 12.0036C238.197 11.5643 237.584 11.3446 236.776 11.3446C236.453 11.3446 236.136 11.3823 235.826 11.4576C235.517 11.5329 235.24 11.6459 234.998 11.7965C234.756 11.9472 234.56 12.1417 234.412 12.3802C234.264 12.6187 234.19 12.8949 234.19 13.2087V19.9493H232.573Z" fill="#5C2936"/>
<path d="M248.172 25.7485C247.262 25.7485 246.49 25.6533 245.858 25.463C245.226 25.2727 244.664 24.8857 244.171 24.3021L245.821 22.5892C246.124 22.9571 246.465 23.2172 246.844 23.3695C247.236 23.5217 247.653 23.5979 248.096 23.5979C248.45 23.5979 248.766 23.5598 249.044 23.4837C249.322 23.4075 249.569 23.2616 249.783 23.0459C250.011 22.8302 250.201 22.5321 250.352 22.1514C250.504 21.7708 250.63 21.2823 250.731 20.686L251.016 18.9921H250.902C250.725 19.3727 250.529 19.7217 250.314 20.0389C250.112 20.3434 249.885 20.6098 249.632 20.8382C249.379 21.0666 249.088 21.2442 248.759 21.3711C248.431 21.498 248.058 21.5614 247.641 21.5614C247.11 21.5614 246.661 21.4663 246.295 21.2759C245.928 21.0856 245.625 20.8192 245.384 20.4766C245.144 20.134 244.967 19.7343 244.853 19.2776C244.752 18.8081 244.702 18.3006 244.702 17.755C244.702 16.8668 244.803 16.0485 245.005 15.2999C245.207 14.5513 245.498 13.9105 245.877 13.3776C246.269 12.832 246.737 12.4133 247.281 12.1215C247.837 11.817 248.456 11.6647 249.139 11.6647C249.935 11.6647 250.529 11.8487 250.921 12.2167C251.313 12.5719 251.578 13.0731 251.717 13.7202H251.869L252.173 11.8931H254.941L253.424 21.0285C253.158 22.6272 252.577 23.8136 251.68 24.5875C250.795 25.3615 249.625 25.7485 248.172 25.7485ZM248.854 19.3918C249.196 19.3918 249.493 19.3156 249.745 19.1634C249.998 18.9984 250.238 18.7827 250.466 18.5163C250.618 18.3387 250.788 18.0976 250.978 17.7931C251.18 17.4886 251.319 17.1079 251.395 16.6511L251.604 15.376C251.68 14.9192 251.597 14.5449 251.357 14.2531C251.13 13.9613 250.706 13.8154 250.087 13.8154C249.379 13.8154 248.842 14.0311 248.475 14.4625C248.108 14.8938 247.868 15.4521 247.755 16.1373L247.622 16.9366C247.597 17.0508 247.578 17.184 247.565 17.3363C247.552 17.4886 247.546 17.6662 247.546 17.8692C247.546 18.2879 247.641 18.6495 247.83 18.954C248.033 19.2459 248.374 19.3918 248.854 19.3918Z" fill="#5C2936"/>
<path d="M151.193 126.547H154.3V129.653H151.193V126.547ZM151.193 129.653H154.3V132.76H151.193V129.653ZM148.086 129.653H151.193V132.76H148.086V129.653ZM151.193 132.76H154.3V135.867H151.193V132.76ZM154.3 132.76H157.406V135.867H154.3V132.76ZM154.3 135.867H157.406V138.974H154.3V135.867ZM157.406 135.867H160.513V138.974H157.406V135.867ZM157.406 138.974H160.513V142.08H157.406V138.974ZM160.513 138.974H163.62V142.08H160.513V138.974ZM160.513 142.08H163.62V145.187H160.513V142.08ZM163.62 142.08H166.726V145.187H163.62V142.08ZM163.62 145.187H166.726V148.294H163.62V145.187ZM166.726 148.294H169.833V151.4H166.726V148.294ZM166.726 151.4H169.833V154.507H166.726V151.4ZM169.833 151.4H172.94V154.507H169.833V151.4ZM169.833 154.507H172.94V157.614H169.833V154.507ZM172.94 154.507H176.047V157.614H172.94V154.507ZM172.94 157.614H176.047V160.721H172.94V157.614ZM148.086 148.294H151.193V151.4H148.086V148.294ZM148.086 151.4H151.193V154.507H148.086V151.4ZM151.193 154.507H154.3V157.614H151.193V154.507ZM154.3 157.614H157.406V160.721H154.3V157.614ZM157.406 157.614H160.513V160.721H157.406V157.614ZM154.3 154.507H157.406V157.614H154.3V154.507ZM160.513 154.507H163.62V157.614H160.513V154.507ZM154.3 129.653H157.406V132.76H154.3V129.653ZM157.406 132.76H160.513V135.867H157.406V132.76ZM160.513 135.867H163.62V138.974H160.513V135.867ZM163.62 138.974H166.726V142.08H163.62V138.974ZM166.726 142.08H169.833V145.187H166.726V142.08ZM166.726 145.187H169.833V148.294H166.726V145.187ZM169.833 148.294H172.94V151.4H169.833V148.294ZM172.94 151.4H176.047V154.507H172.94V151.4ZM176.047 154.507H179.153V157.614H176.047V154.507ZM179.153 151.4H182.26V154.507H179.153V151.4ZM163.62 129.653H166.726V132.76H163.62V129.653ZM163.62 126.547H166.726V129.653H163.62V126.547ZM166.726 129.653H169.833V132.76H166.726V129.653ZM160.513 123.44H163.62V126.547H160.513V123.44ZM157.406 123.44H160.513V126.547H157.406V123.44ZM160.513 126.547H163.62V129.653H160.513V126.547ZM154.3 123.44H157.406V126.547H154.3V123.44ZM148.086 142.08H151.193V145.187H148.086V142.08ZM151.193 138.974H154.3V142.08H151.193V138.974ZM169.833 126.547H172.94V129.653H169.833V126.547ZM163.62 151.4H166.726V154.507H163.62V151.4ZM148.086 145.187H151.193V148.294H148.086V145.187ZM157.406 154.507H160.513V157.614H157.406V154.507ZM144.979 148.294H148.086V151.4H144.979V148.294ZM144.979 151.4H148.086V154.507H144.979V151.4ZM148.086 154.507H151.193V157.614H148.086V154.507ZM151.193 157.614H154.3V160.721H151.193V157.614ZM151.193 151.4H154.3V154.507H151.193V151.4Z" fill="#5C2936"/>
<path d="M340.993 49.6682V58.3034H336.675V66.9387H332.357V79.8917H328.04V92.8446H323.722V110.115H315.087V92.8446H319.405V84.2093H323.722V71.2564H328.04V62.6211H332.357V53.9858H328.04V49.6682H340.993ZM332.357 101.48V105.798H328.04V101.48H332.357Z" fill="#5C2936"/>
<path d="M284.881 105.798V110.115H267.61V92.8446H271.928V84.2093H276.246V71.2564H284.881V66.9387H289.199V71.2564H284.881V79.8916H280.563V92.8446H276.246V105.798H284.881ZM284.881 105.798V101.48H289.199V105.798H293.516V101.48H289.199V92.8446H293.516V84.2093H297.834V75.574H302.152V71.2564H306.469V84.2093H302.152V92.8446H297.834V105.798H302.152V110.115H289.199V105.798H284.881ZM306.469 105.798H302.152V101.48H306.469V105.798Z" fill="#5C2936"/>
<path d="M224.45 101.48V110.115H215.814V105.798H220.132V92.8446H224.45V79.8917H228.767V71.2564H233.085V58.3034H237.403V53.9858H233.085V49.6682H246.038V58.3034H241.72V66.9387H237.403V75.574H233.085V79.8917H237.403V84.2093H233.085V88.5269H228.767V101.48H224.45ZM241.72 75.574V79.8917H237.403V75.574H241.72V71.2564H250.356V66.9387H254.673V71.2564H258.991V84.2093H254.673V92.8446H250.356V105.798H254.673V110.115H241.72V97.1622H246.038V88.5269H250.356V75.574H241.72ZM258.991 105.798H254.673V101.48H258.991V105.798Z" fill="#5C2936"/>
<path d="M181.291 101.48V105.798H185.608V110.115H172.656V101.48H168.338V97.1622H172.656V84.2093H176.973V79.8916H181.291V75.574H185.608V71.2564H194.244V66.9387H202.879V71.2564H211.514V84.2093H207.197V92.8446H202.879V105.798H207.197V110.115H194.244V105.798H189.926V101.48H194.244V97.1622H198.561V84.2093H202.879V71.2564H194.244V75.574H185.608V79.8916H181.291V92.8446H176.973V101.48H181.291ZM211.514 105.798H207.197V101.48H211.514V105.798Z" fill="#5C2936"/>
<path d="M164.054 75.5746V71.257H159.736V79.8922H155.419V92.8452H151.101V105.798H155.419V110.116H142.466V92.8452H146.783V84.2099H151.101V75.5746H146.783V71.257H155.419V62.6217H164.054V71.257H172.689V75.5746H164.054ZM159.736 105.798H155.419V101.48H159.736V97.1628H164.054V101.48H159.736V105.798Z" fill="#5C2936"/>
<path d="M146.817 58.3034V49.6682H151.134V53.9858H155.452V58.3034H146.817ZM133.864 75.574V71.2564H129.546V84.2093H125.229V92.8446H120.911V105.798H116.593V114.433H112.276V123.068H107.958V127.386H103.64V123.068H107.958V110.115H112.276V97.1622H116.593V84.2093H120.911V75.574H116.593V71.2564H125.229V62.6211H129.546V53.9858H133.864V49.6682H142.499V53.9858H138.182V58.3034H133.864V71.2564H142.499V75.574H133.864ZM103.64 127.386V131.703H95.0051V127.386H90.6875V118.75H95.0051V127.386H103.64Z" fill="#5C2936"/>
<path d="M112.293 49.6682V58.3034H103.657V49.6682H112.293ZM107.975 66.9387V71.2564H103.657V79.8917H99.3396V92.8446H95.022V101.48H90.7044V105.798H95.022V110.115H86.3867V92.8446H90.7044V84.2093H95.022V71.2564H103.657V66.9387H107.975ZM103.657 101.48V105.798H99.3396V101.48H103.657Z" fill="#5C2936"/>
<path d="M47.4941 88.5269V97.1622H43.1764V88.5269H47.4941V84.2093H51.8117V79.8917H56.1294V75.574H60.447V66.9387H64.7646V62.6211H69.0823V58.3034H73.3999V49.6682H94.9881V53.9858H86.3529V58.3034H82.0352V71.2564H77.7176V79.8917H73.3999V92.8446H69.0823V105.798H73.3999V110.115H47.4941V105.798H56.1294V101.48H60.447V92.8446H64.7646V79.8917H69.0823V71.2564H73.3999V62.6211H69.0823V66.9387H64.7646V75.574H60.447V79.8917H56.1294V84.2093H51.8117V88.5269H47.4941ZM21.5882 53.9858V49.6682H38.8588V97.1622H43.1764V101.48H38.8588V105.798H34.5411V110.115H30.2235V62.6211H25.9059V53.9858H21.5882ZM21.5882 66.9387H25.9059V75.574H21.5882V88.5269H17.2706V97.1622H12.9529V105.798H21.5882V110.115H0V105.798H8.63529V97.1622H12.9529V88.5269H17.2706V75.574H21.5882V66.9387Z" fill="#5C2936"/>
<path d="M371.092 176.08V180.398H375.409V184.715H362.456V176.08H358.139V171.762H362.456V158.81H366.774V154.492H371.092V150.174H375.409V145.857H384.045V141.539H392.68V145.857H401.315V158.81H396.997V167.445H392.68V180.398H396.997V184.715H384.045V180.398H379.727V176.08H384.045V171.762H388.362V158.81H392.68V145.857H384.045V150.174H375.409V154.492H371.092V167.445H366.774V176.08H371.092ZM401.315 180.398H396.997V176.08H401.315V180.398Z" fill="#5C2936"/>
<path d="M345.185 176.08H349.503V184.715H340.868V180.398H336.55V163.127H327.915V171.762H323.597V184.715H314.962V176.08H319.28V167.445H323.597V154.492H327.915V145.857H332.232V132.904H336.55V128.586H332.232V124.268H345.185V128.586H340.868V141.539H336.55V150.174H332.232V158.81H336.55V154.492H340.868V150.174H345.185V145.857H353.821V141.539H358.138V145.857H362.456V150.174H345.185V154.492H340.868V163.127H345.185V176.08Z" fill="#5C2936"/>
<path d="M284.705 180.397V184.715H276.069V180.397H280.387V176.079H284.705V171.762H289.022V167.444H293.34V163.127H297.658V158.809H301.975V154.491H306.293V150.174H289.022V154.491H284.705V150.174H289.022V145.856H314.928V150.174H310.61V154.491H306.293V158.809H301.975V163.127H297.658V167.444H293.34V171.762H289.022V176.079H297.658V180.397H306.293V184.715H289.022V180.397H284.705ZM310.61 180.397H306.293V176.079H310.61V180.397Z" fill="#5C2936"/>
<path d="M284.721 124.268V132.904H276.086V124.268H284.721ZM280.404 141.539V145.857H276.086V154.492H271.768V167.445H267.451V176.08H263.133V180.398H267.451V184.715H258.815V167.445H263.133V158.81H267.451V145.857H276.086V141.539H280.404ZM276.086 176.08V180.398H271.768V176.08H276.086Z" fill="#5C2936"/>
<path d="M232.893 158.81H228.576V150.174H237.211V145.857H241.529V128.586H224.258V141.539H219.94V150.174H215.623V154.492H211.305V158.81H215.623V163.127H211.305V171.762H206.987V180.398H215.623V184.715H189.717V180.398H198.352V171.762H202.67V163.127H206.987V150.174H211.305V141.539H215.623V128.586H211.305V124.268H245.846V128.586H250.164V132.904H254.481V137.221H250.164V150.174H241.529V154.492H237.211V158.81H241.529V180.398H250.164V184.715H232.893V158.81Z" fill="#5C2936"/>
<path d="M404.095 108.892L407.172 110.191L414.98 91.6902L411.904 90.3916L410.597 93.4886L407.5 92.1815L406.201 95.2582L409.298 96.5653L404.095 108.892Z" fill="#5C2936"/>
<path d="M404.095 108.891L400.998 107.584L399.691 110.681L402.788 111.988L404.095 108.891Z" fill="#5C2936"/>
<path d="M399.691 110.683L396.614 109.384L395.316 112.461L398.392 113.759L399.691 110.683Z" fill="#5C2936"/>
<path d="M403.596 101.431L400.52 100.133L399.221 103.209L402.298 104.508L403.596 101.431Z" fill="#5C2936"/>
<path d="M399.219 103.21L393.045 100.604L391.746 103.681L397.92 106.287L399.219 103.21Z" fill="#5C2936"/>
<path d="M395.315 112.459L389.142 109.853L387.834 112.95L394.008 115.556L395.315 112.459Z" fill="#5C2936"/>
<path d="M406.2 95.2582L393.873 90.0554L392.574 93.1321L404.902 98.3349L406.2 95.2582Z" fill="#5C2936"/>
<path d="M414.845 66.1876L417.922 67.4861L419.221 64.4094L422.317 65.7165L423.616 62.6398L420.519 61.3327L421.826 58.2357L418.749 56.9371L417.442 60.0341L414.366 58.7355L415.673 55.6386L412.576 54.3315L411.269 57.4284L408.192 56.1299L406.893 59.2066L409.97 60.5052L408.672 63.5819L411.768 64.889L410.461 67.986L413.538 69.2845L414.845 66.1876Z" fill="#FE022C"/>
<path d="M391.748 103.68L385.574 101.074L384.267 104.171L390.441 106.777L391.748 103.68Z" fill="#5C2936"/>
<path d="M387.835 112.951L375.508 107.748L374.209 110.825L386.536 116.028L387.835 112.951Z" fill="#5C2936"/>
<path d="M392.575 93.1311L386.401 90.5254L385.094 93.6224L391.268 96.2281L392.575 93.1311Z" fill="#5C2936"/>
<path d="M374.074 85.3226L372.767 88.4195L363.496 84.5068L362.197 87.5835L371.468 91.4963L363.66 109.997L366.736 111.296L370.641 102.045L373.717 103.344L372.41 106.441L375.507 107.748L376.814 104.651L382.968 107.248L384.266 104.171L375.016 100.267L376.323 97.1701L373.246 95.8716L375.843 89.7181L378.92 91.0167L385.43 75.5926L382.353 74.294L377.15 86.6211L374.074 85.3226Z" fill="#5C2936"/>
<path d="M385.094 93.6225L382.018 92.3239L380.719 95.4006L383.796 96.6992L385.094 93.6225Z" fill="#5C2936"/>
<path d="M395.172 86.9779L396.479 83.8809L399.556 85.1795L400.854 82.1027L403.951 83.4098L405.258 80.3129L408.335 81.6114L410.932 75.458L407.856 74.1594L409.163 71.0624L402.989 68.4568L401.682 71.5537L398.585 70.2466L399.892 67.1497L393.739 64.5525L392.431 67.6495L389.334 66.3424L386.737 72.4959L389.834 73.803L388.527 76.8999L391.604 78.1985L390.305 81.2752L393.382 82.5738L392.075 85.6708L395.172 86.9779Z" fill="#FE022C"/>
<path d="M380.718 95.4012L377.621 94.0941L376.323 97.1708L379.42 98.4779L380.718 95.4012Z" fill="#5C2936"/>
<path d="M383.661 71.1991L380.584 69.9006L379.277 72.9975L382.354 74.2961L383.661 71.1991Z" fill="#5C2936"/>
<path d="M376.671 79.1678L373.574 77.8607L370.977 84.0142L374.074 85.3213L376.671 79.1678Z" fill="#5C2936"/>
<path d="M381.882 66.8219L378.785 65.5148L377.487 68.5915L380.584 69.8986L381.882 66.8219Z" fill="#5C2936"/>
<path d="M374.88 74.7662L371.804 73.4676L370.497 76.5646L373.573 77.8632L374.88 74.7662Z" fill="#5C2936"/>
<path d="M373.104 70.3898L366.931 67.7841L365.632 70.8608L371.806 73.4665L373.104 70.3898Z" fill="#5C2936"/>
<path d="M380.084 62.4394L373.91 59.8337L372.612 62.9104L378.785 65.5161L380.084 62.4394Z" fill="#5C2936"/>
<path d="M364.804 81.4101L358.65 78.813L357.343 81.9099L363.497 84.5071L364.804 81.4101Z" fill="#5C2936"/>
<path d="M368.236 64.6888L365.159 63.3902L363.852 66.4872L366.929 67.7858L368.236 64.6888Z" fill="#5C2936"/>
<path d="M359.949 75.7367L356.852 74.4296L355.553 77.5063L358.65 78.8134L359.949 75.7367Z" fill="#5C2936"/>
<path d="M366.458 60.3115L363.361 59.0044L362.063 62.0812L365.16 63.3883L366.458 60.3115Z" fill="#5C2936"/>
<path d="M375.217 56.7357L365.967 52.8315L364.66 55.9284L373.91 59.8327L375.217 56.7357Z" fill="#5C2936"/>
<path d="M359.457 68.2558L356.38 66.9573L353.774 73.131L356.851 74.4295L359.457 68.2558Z" fill="#5C2936"/>
<path d="M367.266 49.7539L364.189 48.4554L362.891 51.5321L365.968 52.8306L367.266 49.7539Z" fill="#5C2936"/>
<path d="M358.986 60.784L355.889 59.4769L353.283 65.6506L356.38 66.9577L358.986 60.784Z" fill="#5C2936"/>
<path d="M361.092 47.1488L364.189 48.4559L365.496 45.3589L359.322 42.7533L352.812 58.1774L355.889 59.476L361.092 47.1488Z" fill="#5C2936"/>
<path d="M97.3188 12.6178H96.0596V13.8853H97.3188V23.9842H98.5864V10.0992H97.3188V12.6178Z" fill="#5C2936"/>
<path d="M97.3188 23.984H96.0596V25.2432H97.3188V23.984Z" fill="#5C2936"/>
<path d="M97.3188 8.83148H96.0596V10.099H97.3188V8.83148Z" fill="#5C2936"/>
<path d="M94.8008 23.984H93.5332V25.2432H77.1215V23.984H75.8623V25.2432H74.5947V26.5108H96.06V25.2432H94.8008V23.984Z" fill="#5C2936"/>
<path d="M93.5327 22.7162H92.2734V23.9838H93.5327V22.7162Z" fill="#5C2936"/>
<path d="M92.2734 21.4573H91.0059V22.7166H92.2734V21.4573Z" fill="#5C2936"/>
<path d="M93.5327 15.1444H91.0059V16.4119H93.5327V15.1444Z" fill="#5C2936"/>
<path d="M91.0063 20.1977H89.7471V21.4569H91.0063V20.1977Z" fill="#5C2936"/>
<path d="M89.7466 18.9299H88.4873V20.1974H89.7466V18.9299Z" fill="#5C2936"/>
<path d="M91.0058 16.4114H88.4873V17.6706H91.0058V16.4114Z" fill="#5C2936"/>
<path d="M89.7466 1.25885H88.4873V2.5181H89.7466V1.25885Z" fill="#5C2936"/>
<path d="M88.4876 8.83148H85.9608V10.099H84.7016V8.83148H82.1748V10.099H80.9072V12.6175H82.1748V13.8851H83.434V15.1443H84.7016V16.4119H85.9608V15.1443H87.2201V13.8851H88.4876V12.6175H89.7469V10.099H88.4876V8.83148Z" fill="#5C2936"/>
<path d="M88.4876 17.6711H82.1748V18.9303H88.4876V17.6711Z" fill="#5C2936"/>
<path d="M88.4876 0H82.1748V1.25925H88.4876V0Z" fill="#5C2936"/>
<path d="M82.1748 18.9299H80.9072V20.1974H82.1748V18.9299Z" fill="#5C2936"/>
<path d="M82.1743 16.4114H79.6475V17.6706H82.1743V16.4114Z" fill="#5C2936"/>
<path d="M82.1748 1.25885H80.9072V2.5181H82.1748V1.25885Z" fill="#5C2936"/>
<path d="M80.9067 20.1977H79.6475V21.4569H80.9067V20.1977Z" fill="#5C2936"/>
<path d="M79.6479 21.4573H78.3887V22.7166H79.6479V21.4573Z" fill="#5C2936"/>
<path d="M79.6479 15.1444H77.1211V16.4119H79.6479V15.1444Z" fill="#5C2936"/>
<path d="M78.3886 22.7162H77.1211V23.9838H78.3886V22.7162Z" fill="#5C2936"/>
<path d="M75.8623 13.885H74.5947V15.1442H77.1215V5.04535H93.5332V15.1442H96.06V13.885H94.8008V8.83139H96.06V7.57214H94.8008V3.78609H91.0064V2.51855H89.7472V3.78609H80.9076V2.51855H79.6483V3.78609H75.8623V7.57214H74.5947V8.83139H75.8623V13.885Z" fill="#5C2936"/>
<path d="M74.5942 23.984H73.335V25.2432H74.5942V23.984Z" fill="#5C2936"/>
<path d="M74.5942 8.83148H73.335V10.099H74.5942V8.83148Z" fill="#5C2936"/>
<path d="M73.3354 13.8853H74.5947V12.6178H73.3354V10.0992H72.0762V23.9842H73.3354V13.8853Z" fill="#5C2936"/>
<path d="M108.542 169.834H111.849V173.14H115.155V176.468H111.849V179.775H108.542V176.468H105.214V173.14H108.542V169.834Z" fill="#FEDA02"/>
<path d="M108.528 193.03H111.842V196.344H108.528V193.03Z" fill="#FEDA02"/>
<path d="M115.141 145.808V149.137H118.47V152.443H115.141V155.75H111.835V152.443H108.528V149.137H111.835V145.808H115.141Z" fill="#FEDA02"/>
<path d="M115.156 162.377H118.47V165.691H115.156V162.377Z" fill="#FEDA02"/>
<path d="M118.476 202.972H121.776V206.278H125.097V209.607H121.776V212.913H118.476V209.607H115.155V206.278H118.476V202.972Z" fill="#FEDA02"/>
<path d="M118.469 186.403H121.783V188.888H118.469V186.403Z" fill="#FEDA02"/>
<path d="M132.271 186.403V182.821H129.24V179.215H132.271V175.633H135.322V179.215H138.353V182.821H135.322V186.403H132.271Z" fill="#FEDA02"/>
<path d="M154.092 183.089H157.406V186.403H154.092V183.089Z" fill="#FEDA02"/>
<path d="M169.006 152.436H172.319V155.75H169.006V152.436Z" fill="#5C2936"/>
</svg>
