<svg width="513" height="260" viewBox="0 0 513 260" fill="none" xmlns="http://www.w3.org/2000/svg">
<g filter="url(#filter0_d_144_2325)">
<path d="M169.716 25.2495C167.929 25.2495 166.607 24.7987 165.753 23.8972C164.898 22.9801 164.47 21.7211 164.47 20.1201C164.47 19.001 164.641 17.9829 164.983 17.0658C165.325 16.1487 165.799 15.3638 166.405 14.7109C167.027 14.0581 167.773 13.5529 168.644 13.1954C169.514 12.8379 170.486 12.6592 171.558 12.6592C172.164 12.6592 172.732 12.7291 173.26 12.869C173.804 13.0089 174.278 13.2187 174.682 13.4985C175.086 13.7628 175.405 14.1047 175.638 14.5244C175.871 14.9285 175.988 15.4104 175.988 15.97C175.988 16.4518 175.887 16.9337 175.685 17.4155C175.483 17.8974 175.086 18.3404 174.496 18.7445C173.921 19.1331 173.097 19.4673 172.024 19.7471C170.967 20.0113 169.584 20.1745 167.874 20.2367C167.859 20.3299 167.851 20.4077 167.851 20.4698C167.851 20.5165 167.851 20.5709 167.851 20.633C167.851 21.2859 168.03 21.7833 168.387 22.1252C168.745 22.4672 169.335 22.6382 170.159 22.6382C170.486 22.6382 170.781 22.6071 171.045 22.5449C171.325 22.4827 171.589 22.3739 171.838 22.2185C172.102 22.0475 172.359 21.8377 172.607 21.589C172.872 21.3247 173.159 20.9905 173.47 20.5864L175.592 21.962C175.281 22.4128 174.939 22.8402 174.566 23.2444C174.208 23.6329 173.796 23.9827 173.33 24.2936C172.864 24.5889 172.335 24.822 171.745 24.993C171.154 25.164 170.478 25.2495 169.716 25.2495ZM171.208 15.0607C170.462 15.0607 169.825 15.286 169.296 15.7368C168.768 16.172 168.395 16.9103 168.177 17.9518L168.107 18.2782C169.18 18.216 170.019 18.115 170.625 17.9751C171.247 17.8352 171.706 17.672 172.001 17.4855C172.312 17.2989 172.506 17.0969 172.584 16.8793C172.662 16.6617 172.701 16.4596 172.701 16.2731C172.701 15.4648 172.203 15.0607 171.208 15.0607Z" fill="white"/>
<path d="M152.635 7.71582H156.039L154.71 15.8063H154.827C155.278 14.827 155.798 14.0576 156.389 13.498C156.995 12.9385 157.78 12.6587 158.744 12.6587C159.335 12.6587 159.832 12.7519 160.236 12.9385C160.656 13.125 160.998 13.3815 161.262 13.7079C161.526 14.0187 161.721 14.384 161.845 14.8037C161.969 15.2234 162.031 15.6664 162.031 16.1327C162.031 16.4746 162.008 16.8244 161.962 17.1819C161.93 17.5394 161.868 17.9979 161.775 18.5575L160.702 24.9692H157.298L158.441 18.1378C158.472 17.9202 158.503 17.7026 158.534 17.485C158.581 17.2518 158.604 16.9876 158.604 16.6922C158.604 16.5368 158.581 16.3736 158.534 16.2026C158.488 16.0316 158.41 15.8762 158.301 15.7363C158.192 15.5964 158.045 15.4876 157.858 15.4099C157.687 15.3166 157.469 15.27 157.205 15.27C156.801 15.27 156.451 15.3633 156.156 15.5498C155.861 15.7363 155.581 16.0083 155.317 16.3658C155.146 16.599 154.936 16.9254 154.687 17.3451C154.454 17.7492 154.299 18.2 154.221 18.6974L153.172 24.9692H149.768L152.635 7.71582Z" fill="white"/>
<path d="M145.16 11.5398L142.922 24.9694H139.471L141.71 11.5398H137L137.466 8.69531H150.336L149.87 11.5398H145.16Z" fill="white"/>
</g>
<g filter="url(#filter1_d_144_2325)">
<path d="M342.011 29.2265C341.591 29.2265 341.211 29.1566 340.869 29.0167C340.527 28.8768 340.208 28.6825 339.913 28.4338C339.617 28.1851 339.33 27.882 339.05 27.5245C338.77 27.1825 338.483 26.7939 338.187 26.3587L337.231 24.9831L339.563 23.3744L341.964 26.5452L342.244 26.4287L344.156 14.9109H340.356L340.799 12.2529H344.599L344.902 10.4343C345.073 9.42398 345.493 8.60795 346.161 7.9862C346.83 7.34892 347.793 7.03027 349.052 7.03027H353.202L352.759 9.68823H348.423L348.003 12.2529H352.34L351.897 14.9109H347.537L345.765 25.5194C345.547 26.825 345.112 27.7654 344.459 28.3405C343.806 28.9312 342.99 29.2265 342.011 29.2265Z" fill="white"/>
<path d="M330.176 24.563C328.528 24.563 327.254 24.1044 326.352 23.1874C325.451 22.2547 325 20.9879 325 19.3869C325 18.2367 325.163 17.2031 325.49 16.286C325.832 15.3689 326.298 14.5917 326.889 13.9545C327.495 13.3172 328.21 12.8276 329.034 12.4856C329.873 12.1436 330.798 11.9727 331.808 11.9727C333.456 11.9727 334.73 12.439 335.632 13.3716C336.533 14.2886 336.984 15.5477 336.984 17.1487C336.984 18.2989 336.813 19.3325 336.471 20.2496C336.145 21.1667 335.678 21.9439 335.072 22.5812C334.482 23.2184 333.767 23.7081 332.927 24.05C332.103 24.392 331.186 24.563 330.176 24.563ZM330.432 22.0216C331.179 22.0216 331.785 21.7962 332.251 21.3454C332.733 20.8947 333.044 20.2496 333.184 19.4103L333.487 17.5917C333.518 17.4518 333.541 17.2963 333.557 17.1254C333.588 16.9388 333.603 16.7756 333.603 16.6357C333.603 15.9207 333.417 15.3922 333.044 15.0503C332.686 14.6928 332.189 14.514 331.552 14.514C330.806 14.514 330.192 14.7394 329.71 15.1902C329.243 15.6409 328.94 16.286 328.8 17.1254L328.497 18.944C328.466 19.0838 328.435 19.2471 328.404 19.4336C328.389 19.6046 328.381 19.76 328.381 19.8999C328.381 20.6149 328.559 21.1511 328.917 21.5086C329.29 21.8506 329.795 22.0216 330.432 22.0216Z" fill="white"/>
</g>
<g filter="url(#filter2_d_144_2325)">
<path d="M193.731 12.0801H195.309L196.62 22.4522H196.82L198.775 12.0801H200.731L202.687 22.4522H202.887L204.198 12.0801H205.731L203.975 24.0801H201.664L199.842 14.0336H199.664L197.798 24.0801H195.487L193.731 12.0801Z" fill="white"/>
</g>
<g filter="url(#filter3_d_144_2325)">
<path d="M218.197 25.0801C216.334 25.0801 214.958 24.6504 214.067 23.7912C213.176 22.9171 212.731 21.7171 212.731 20.1912C212.731 19.1245 212.909 18.1542 213.265 17.2801C213.622 16.406 214.116 15.6579 214.747 15.0356C215.395 14.4134 216.172 13.9319 217.079 13.5912C217.986 13.2504 218.998 13.0801 220.116 13.0801C220.747 13.0801 221.338 13.1467 221.889 13.2801C222.456 13.4134 222.95 13.6134 223.371 13.8801C223.792 14.1319 224.124 14.4579 224.367 14.8579C224.609 15.243 224.731 15.7023 224.731 16.2356C224.731 16.6949 224.626 17.1542 224.415 17.6134C224.205 18.0727 223.792 18.4949 223.176 18.8801C222.577 19.2504 221.719 19.569 220.601 19.8356C219.5 20.0875 218.059 20.243 216.278 20.3023C216.261 20.3912 216.253 20.4653 216.253 20.5245C216.253 20.569 216.253 20.6208 216.253 20.6801C216.253 21.3023 216.439 21.7764 216.812 22.1023C217.184 22.4282 217.8 22.5912 218.658 22.5912C218.998 22.5912 219.306 22.5616 219.581 22.5023C219.873 22.443 220.148 22.3393 220.407 22.1912C220.682 22.0282 220.95 21.8282 221.209 21.5912C221.484 21.3393 221.784 21.0208 222.107 20.6356L224.318 21.9467C223.994 22.3764 223.638 22.7838 223.249 23.169C222.877 23.5393 222.448 23.8727 221.962 24.169C221.476 24.4504 220.925 24.6727 220.31 24.8356C219.695 24.9986 218.99 25.0801 218.197 25.0801ZM219.751 15.369C218.974 15.369 218.31 15.5838 217.759 16.0134C217.209 16.4282 216.82 17.1319 216.593 18.1245L216.52 18.4356C217.638 18.3764 218.512 18.2801 219.144 18.1467C219.792 18.0134 220.269 17.8579 220.577 17.6801C220.901 17.5023 221.103 17.3097 221.184 17.1023C221.265 16.8949 221.306 16.7023 221.306 16.5245C221.306 15.7542 220.788 15.369 219.751 15.369Z" fill="white"/>
</g>
<g filter="url(#filter4_d_144_2325)">
<path d="M239.556 21.7229L239.487 21.7335C239.17 22.7413 238.724 23.5801 238.151 24.2498C237.59 24.9017 236.787 25.3077 235.743 25.4678C234.544 25.6513 233.563 25.4084 232.801 24.739C232.053 24.0673 231.561 22.9632 231.326 21.4268C231.204 20.6278 231.165 19.761 231.211 18.8263C231.269 17.8738 231.454 16.9728 231.764 16.1234C232.089 15.2715 232.574 14.5368 233.219 13.9191C233.861 13.2861 234.704 12.8896 235.749 12.7296C236.625 12.5955 237.385 12.6834 238.03 12.9934C238.688 13.2858 239.208 13.8037 239.589 14.5473L239.658 14.5367L239.771 7.11299L241.569 6.83764L241.324 24.3298L239.526 24.6052L239.556 21.7229ZM236.121 23.7822C236.613 23.7069 237.082 23.5329 237.527 23.2602C237.971 22.9722 238.364 22.5659 238.709 22.0414C238.964 21.6563 239.172 21.2157 239.332 20.7194C239.507 20.2209 239.598 19.6879 239.606 19.1207L239.641 16.4263C239.652 15.5755 239.355 14.9684 238.749 14.6052C238.156 14.2243 237.414 14.1021 236.523 14.2386C235.371 14.4151 234.517 14.8997 233.962 15.6923C233.423 16.4825 233.146 17.4449 233.131 18.5793L233.108 20.2811C233.111 20.5009 233.117 20.6965 233.127 20.8678C233.136 21.0238 233.151 21.1786 233.175 21.3323C233.311 22.2234 233.626 22.8907 234.118 23.3342C234.624 23.76 235.292 23.9093 236.121 23.7822Z" fill="white"/>
</g>
<g filter="url(#filter5_d_144_2325)">
<path d="M253.679 20.2746L253.518 20.2461C253.084 20.9109 252.551 21.4238 251.918 21.7849C251.304 22.1334 250.522 22.2232 249.573 22.0544C248.915 21.9373 248.333 21.7073 247.825 21.3645C247.333 21.0243 246.933 20.5663 246.625 19.9905C246.332 19.4175 246.141 18.7203 246.05 17.899C245.975 17.0804 246.032 16.1355 246.223 15.0642C246.413 13.993 246.685 13.0862 247.038 12.3439C247.407 11.6043 247.827 11.016 248.3 10.579C248.787 10.1448 249.321 9.85294 249.9 9.70339C250.495 9.55656 251.121 9.54168 251.779 9.65876C252.253 9.74317 252.663 9.87926 253.009 10.067C253.354 10.2548 253.646 10.4803 253.883 10.7436C254.136 11.0095 254.334 11.3133 254.479 11.6547C254.641 11.9836 254.768 12.3377 254.858 12.7169L255.019 12.7454L256.317 5.44579L259.715 6.05025L256.692 23.0369L253.295 22.4324L253.679 20.2746ZM251.512 19.676C252.109 19.7822 252.648 19.728 253.128 19.5135C253.623 19.3017 253.927 18.882 254.038 18.2546L254.659 14.7655C254.771 14.138 254.631 13.6395 254.239 13.2697C253.862 12.9027 253.375 12.6661 252.778 12.56C252.013 12.4238 251.382 12.5562 250.884 12.9571C250.389 13.3427 250.068 13.9486 249.921 14.775L249.595 16.6114C249.447 17.4378 249.538 18.1249 249.867 18.6728C250.199 19.2055 250.747 19.5398 251.512 19.676Z" fill="white"/>
</g>
<g filter="url(#filter6_d_144_2325)">
<path d="M271.301 12.149C270.606 12.0695 270.127 11.8817 269.864 11.5856C269.618 11.2758 269.518 10.9202 269.564 10.5187C269.572 10.4415 269.592 10.342 269.621 10.2202C269.652 10.083 269.707 9.87802 269.785 9.60534C269.919 9.12 270.171 8.7655 270.541 8.54183C270.91 8.31816 271.443 8.24606 272.138 8.32555C272.833 8.40503 273.303 8.59966 273.549 8.90942C273.813 9.20551 273.921 9.55431 273.876 9.95583C273.867 10.033 273.847 10.1403 273.815 10.2775C273.786 10.3993 273.732 10.5965 273.654 10.8692C273.52 11.3545 273.268 11.709 272.898 11.9327C272.529 12.1563 271.996 12.2284 271.301 12.149ZM268.773 25.8463C267.815 25.7368 267.125 25.4075 266.703 24.8586C266.283 24.2942 266.121 23.5874 266.218 22.738C266.248 22.4755 266.293 22.2224 266.352 21.9789C266.411 21.7353 266.514 21.3795 266.662 20.9114L268.155 16.0602L264.542 15.6469L265.284 13.0565L272.326 13.8619L269.456 23.1553L269.836 23.3161L273.458 20.3746L275.123 22.2312L273.525 23.6911C272.637 24.4812 271.819 25.0605 271.073 25.4289C270.342 25.799 269.576 25.9381 268.773 25.8463Z" fill="white"/>
</g>
<g filter="url(#filter7_d_144_2325)">
<path d="M280.731 24.0801V12.3528H282.682V14.2619H282.78C282.91 13.974 283.072 13.7013 283.268 13.4437C283.463 13.171 283.698 12.9361 283.975 12.7392C284.268 12.5422 284.609 12.3831 284.999 12.2619C285.389 12.1407 285.845 12.0801 286.365 12.0801C287.682 12.0801 288.739 12.474 289.536 13.2619C290.333 14.0346 290.731 15.1331 290.731 16.5573V24.0801H288.78V16.8755C288.78 15.7998 288.528 15.0043 288.024 14.4892C287.52 13.9589 286.78 13.6937 285.804 13.6937C285.414 13.6937 285.032 13.7392 284.658 13.8301C284.284 13.921 283.95 14.0574 283.658 14.2392C283.365 14.421 283.129 14.6558 282.95 14.9437C282.772 15.2316 282.682 15.5649 282.682 15.9437V24.0801H280.731Z" fill="white"/>
</g>
<g filter="url(#filter8_d_144_2325)">
<path d="M299.56 31.0801C298.462 31.0801 297.531 30.9652 296.768 30.7355C296.005 30.5058 295.326 30.0386 294.731 29.3341L296.722 27.2666C297.088 27.7107 297.5 28.0247 297.958 28.2085C298.431 28.3922 298.935 28.4841 299.469 28.4841C299.896 28.4841 300.277 28.4382 300.613 28.3463C300.949 28.2544 301.246 28.0783 301.506 27.8179C301.78 27.5576 302.009 27.1976 302.192 26.7382C302.375 26.2787 302.528 25.6891 302.65 24.9693L302.993 22.9247H302.856C302.642 23.3841 302.406 23.8053 302.146 24.1882C301.902 24.5558 301.628 24.8774 301.323 25.1531C301.017 25.4287 300.666 25.6431 300.27 25.7963C299.873 25.9494 299.423 26.026 298.919 26.026C298.278 26.026 297.737 25.9112 297.294 25.6814C296.852 25.4517 296.486 25.1301 296.196 24.7166C295.906 24.3031 295.692 23.8206 295.555 23.2693C295.433 22.7026 295.372 22.09 295.372 21.4314C295.372 20.3594 295.494 19.3715 295.738 18.4679C295.982 17.5643 296.333 16.7909 296.791 16.1476C297.264 15.4891 297.828 14.9837 298.484 14.6314C299.156 14.2639 299.903 14.0801 300.727 14.0801C301.689 14.0801 302.406 14.3022 302.879 14.7463C303.352 15.1751 303.672 15.7801 303.84 16.5612H304.023L304.389 14.3558H307.731L305.9 25.3828C305.58 27.3125 304.878 28.7445 303.794 29.6787C302.726 30.613 301.315 31.0801 299.56 31.0801ZM300.384 23.4071C300.796 23.4071 301.155 23.3152 301.46 23.1314C301.765 22.9323 302.055 22.672 302.33 22.3503C302.513 22.1359 302.719 21.8449 302.948 21.4774C303.192 21.1098 303.359 20.6503 303.451 20.099L303.703 18.5598C303.794 18.0085 303.695 17.5567 303.405 17.2044C303.131 16.8521 302.619 16.676 301.872 16.676C301.017 16.676 300.369 16.9364 299.926 17.4571C299.484 17.9778 299.194 18.6517 299.057 19.4787L298.896 20.4436C298.866 20.5814 298.843 20.7422 298.828 20.926C298.813 21.1098 298.805 21.3242 298.805 21.5693C298.805 22.0747 298.919 22.5112 299.148 22.8787C299.392 23.231 299.804 23.4071 300.384 23.4071Z" fill="white"/>
</g>
<g filter="url(#filter9_d_144_2325)">
<path d="M182.5 152.75H186.25V156.5H182.5V152.75ZM182.5 156.5H186.25V160.25H182.5V156.5ZM178.75 156.5H182.5V160.25H178.75V156.5ZM182.5 160.25H186.25V164H182.5V160.25ZM186.25 160.25H190V164H186.25V160.25ZM186.25 164H190V167.75H186.25V164ZM190 164H193.75V167.75H190V164ZM190 167.75H193.75V171.5H190V167.75ZM193.75 167.75H197.5V171.5H193.75V167.75ZM193.75 171.5H197.5V175.25H193.75V171.5ZM197.5 171.5H201.25V175.25H197.5V171.5ZM197.5 175.25H201.25V179H197.5V175.25ZM201.25 179H205V182.75H201.25V179ZM201.25 182.75H205V186.5H201.25V182.75ZM205 182.75H208.75V186.5H205V182.75ZM205 186.5H208.75V190.25H205V186.5ZM208.75 186.5H212.5V190.25H208.75V186.5ZM208.75 190.25H212.5V194H208.75V190.25ZM178.75 179H182.5V182.75H178.75V179ZM178.75 182.75H182.5V186.5H178.75V182.75ZM182.5 186.5H186.25V190.25H182.5V186.5ZM186.25 190.25H190V194H186.25V190.25ZM190 190.25H193.75V194H190V190.25ZM186.25 186.5H190V190.25H186.25V186.5ZM193.75 186.5H197.5V190.25H193.75V186.5ZM186.25 156.5H190V160.25H186.25V156.5ZM190 160.25H193.75V164H190V160.25ZM193.75 164H197.5V167.75H193.75V164ZM197.5 167.75H201.25V171.5H197.5V167.75ZM201.25 171.5H205V175.25H201.25V171.5ZM201.25 175.25H205V179H201.25V175.25ZM205 179H208.75V182.75H205V179ZM208.75 182.75H212.5V186.5H208.75V182.75ZM212.5 186.5H216.25V190.25H212.5V186.5ZM216.25 182.75H220V186.5H216.25V182.75ZM197.5 156.5H201.25V160.25H197.5V156.5ZM197.5 152.75H201.25V156.5H197.5V152.75ZM201.25 156.5H205V160.25H201.25V156.5ZM193.75 149H197.5V152.75H193.75V149ZM190 149H193.75V152.75H190V149ZM193.75 152.75H197.5V156.5H193.75V152.75ZM186.25 149H190V152.75H186.25V149ZM178.75 171.5H182.5V175.25H178.75V171.5ZM182.5 167.75H186.25V171.5H182.5V167.75ZM205 152.75H208.75V156.5H205V152.75ZM197.5 182.75H201.25V186.5H197.5V182.75ZM178.75 175.25H182.5V179H178.75V175.25ZM190 186.5H193.75V190.25H190V186.5ZM175 179H178.75V182.75H175V179ZM175 182.75H178.75V186.5H175V182.75ZM178.75 186.5H182.5V190.25H178.75V186.5ZM182.5 190.25H186.25V194H182.5V190.25ZM182.5 182.75H186.25V186.5H182.5V182.75Z" fill="white"/>
</g>
<g filter="url(#filter10_d_144_2325)">
<path d="M411.6 59.9531V70.3765H406.388V80.7998H401.177V96.4348H395.965V112.07H390.753V132.917H380.33V112.07H385.542V101.647H390.753V86.0115H395.965V75.5881H401.177V65.1648H395.965V59.9531H411.6ZM401.177 122.493V127.705H395.965V122.493H401.177Z" fill="white"/>
<path d="M343.869 127.705V132.917H323.022V112.07H328.234V101.646H333.445V86.0115H343.869V80.7998H349.08V86.0115H343.869V96.4348H338.657V112.07H333.445V127.705H343.869ZM343.869 127.705V122.493H349.08V127.705H354.292V122.493H349.08V112.07H354.292V101.646H359.504V91.2231H364.715V86.0115H369.927V101.646H364.715V112.07H359.504V127.705H364.715V132.917H349.08V127.705H343.869ZM369.927 127.705H364.715V122.493H369.927V127.705Z" fill="white"/>
<path d="M270.926 122.493V132.917H260.502V127.705H265.714V112.07H270.926V96.4348H276.137V86.0115H281.349V70.3765H286.561V65.1648H281.349V59.9531H296.984V70.3765H291.772V80.7998H286.561V91.2232H281.349V96.4348H286.561V101.647H281.349V106.858H276.137V122.493H270.926ZM291.772 91.2232V96.4348H286.561V91.2232H291.772V86.0115H302.196V80.7998H307.407V86.0115H312.619V101.647H307.407V112.07H302.196V127.705H307.407V132.917H291.772V117.282H296.984V106.858H302.196V91.2232H291.772ZM312.619 127.705H307.407V122.493H312.619V127.705Z" fill="white"/>
<path d="M218.829 122.493V127.705H224.041V132.917H208.406V122.493H203.194V117.282H208.406V101.646H213.618V96.4348H218.829V91.2231H224.041V86.0115H234.464V80.7998H244.888V86.0115H255.311V101.646H250.099V112.07H244.888V127.705H250.099V132.917H234.464V127.705H229.253V122.493H234.464V117.282H239.676V101.646H244.888V86.0115H234.464V91.2231H224.041V96.4348H218.829V112.07H213.618V122.493H218.829ZM255.311 127.705H250.099V122.493H255.311V127.705Z" fill="white"/>
<path d="M198.023 91.2239V86.0122H192.812V96.4356H187.6V112.071H182.388V127.706H187.6V132.917H171.965V112.071H177.177V101.647H182.388V91.2239H177.177V86.0122H187.6V75.5889H198.023V86.0122H208.447V91.2239H198.023ZM192.812 127.706H187.6V122.494H192.812V117.282H198.023V122.494H192.812V127.706Z" fill="white"/>
<path d="M177.218 70.3765V59.9531H182.429V65.1648H187.641V70.3765H177.218ZM161.583 91.2232V86.0115H156.371V101.647H151.159V112.07H145.948V127.705H140.736V138.128H135.524V148.552H130.313V153.763H125.101V148.552H130.313V132.917H135.524V117.282H140.736V101.647H145.948V91.2232H140.736V86.0115H151.159V75.5881H156.371V65.1648H161.583V59.9531H172.006V65.1648H166.794V70.3765H161.583V86.0115H172.006V91.2232H161.583ZM125.101 153.763V158.975H114.677V153.763H109.466V143.34H114.677V153.763H125.101Z" fill="white"/>
<path d="M135.544 59.9531V70.3765H125.121V59.9531H135.544ZM130.333 80.7998V86.0115H125.121V96.4348H119.909V112.07H114.698V122.493H109.486V127.705H114.698V132.917H104.274V112.07H109.486V101.647H114.698V86.0115H125.121V80.7998H130.333ZM125.121 122.493V127.705H119.909V122.493H125.121Z" fill="white"/>
<path d="M57.3284 106.858V117.282H52.1167V106.858H57.3284V101.647H62.5401V96.4348H67.7517V91.2232H72.9634V80.7998H78.1751V75.5881H83.3868V70.3765H88.5984V59.9531H114.657V65.1648H104.233V70.3765H99.0218V86.0115H93.8101V96.4348H88.5984V112.07H83.3868V127.705H88.5984V132.917H57.3284V127.705H67.7517V122.493H72.9634V112.07H78.1751V96.4348H83.3868V86.0115H88.5984V75.5881H83.3868V80.7998H78.1751V91.2232H72.9634V96.4348H67.7517V101.647H62.5401V106.858H57.3284ZM26.0584 65.1648V59.9531H46.905V117.282H52.1167V122.493H46.905V127.705H41.6934V132.917H36.4817V75.5881H31.27V65.1648H26.0584ZM26.0584 80.7998H31.27V91.2232H26.0584V106.858H20.8467V117.282H15.635V127.705H26.0584V132.917H0V127.705H10.4233V117.282H15.635V106.858H20.8467V91.2232H26.0584V80.7998Z" fill="white"/>
</g>
<g filter="url(#filter11_d_144_2325)">
<path d="M447.931 212.54V217.752H453.143V222.963H437.508V212.54H432.296V207.328H437.508V191.693H442.719V186.482H447.931V181.27H453.143V176.058H463.566V170.847H473.989V176.058H484.413V191.693H479.201V202.117H473.989V217.752H479.201V222.963H463.566V217.752H458.354V212.54H463.566V207.328H468.778V191.693H473.989V176.058H463.566V181.27H453.143V186.482H447.931V202.117H442.719V212.54H447.931ZM484.413 217.752H479.201V212.54H484.413V217.752Z" fill="white"/>
<path d="M416.661 212.54H421.873V222.963H411.449V217.752H406.238V196.905H395.814V207.328H390.603V222.963H380.179V212.54H385.391V202.117H390.603V186.482H395.814V176.058H401.026V160.423H406.238V155.212H401.026V150H416.661V155.212H411.449V170.847H406.238V181.27H401.026V191.693H406.238V186.482H411.449V181.27H416.661V176.058H427.084V170.847H432.296V176.058H437.508V181.27H416.661V186.482H411.449V196.905H416.661V212.54Z" fill="white"/>
<path d="M343.657 217.751V222.963H333.233V217.751H338.445V212.539H343.657V207.328H348.868V202.116H354.08V196.904H359.292V191.693H364.503V186.481H369.715V181.269H348.868V186.481H343.657V181.269H348.868V176.058H380.138V181.269H374.927V186.481H369.715V191.693H364.503V196.904H359.292V202.116H354.08V207.328H348.868V212.539H359.292V217.751H369.715V222.963H348.868V217.751H343.657ZM374.927 217.751H369.715V212.539H374.927V217.751Z" fill="white"/>
<path d="M343.677 150V160.423H333.254V150H343.677ZM338.466 170.847V176.058H333.254V186.482H328.042V202.117H322.831V212.54H317.619V217.752H322.831V222.963H312.407V202.117H317.619V191.693H322.831V176.058H333.254V170.847H338.466ZM333.254 212.54V217.752H328.042V212.54H333.254Z" fill="white"/>
<path d="M281.117 191.693H275.905V181.27H286.328V176.058H291.54V155.212H270.693V170.847H265.482V181.27H260.27V186.482H255.058V191.693H260.27V196.905H255.058V207.328H249.847V217.752H260.27V222.963H229V217.752H239.423V207.328H244.635V196.905H249.847V181.27H255.058V170.847H260.27V155.212H255.058V150H296.752V155.212H301.963V160.423H307.175V165.635H301.963V181.27H291.54V186.482H286.328V191.693H291.54V217.752H301.963V222.963H281.117V191.693Z" fill="white"/>
</g>
<g filter="url(#filter12_d_144_2325)">
<path d="M487.767 131.441L491.481 133.008L500.906 110.676L497.192 109.109L495.615 112.847L491.876 111.269L490.309 114.983L494.047 116.561L487.767 131.441Z" fill="white"/>
<path d="M487.768 131.439L484.029 129.861L482.452 133.6L486.19 135.177L487.768 131.439Z" fill="white"/>
<path d="M482.451 133.602L478.737 132.034L477.17 135.748L480.884 137.315L482.451 133.602Z" fill="white"/>
<path d="M487.165 122.435L483.451 120.867L481.884 124.581L485.598 126.148L487.165 122.435Z" fill="white"/>
<path d="M481.882 124.581L474.43 121.436L472.862 125.149L480.314 128.295L481.882 124.581Z" fill="white"/>
<path d="M477.17 135.746L469.718 132.601L468.14 136.339L475.592 139.484L477.17 135.746Z" fill="white"/>
<path d="M490.308 114.983L475.429 108.703L473.861 112.417L488.741 118.697L490.308 114.983Z" fill="white"/>
<path d="M500.743 79.8932L504.457 81.4606L506.024 77.7468L509.763 79.3246L511.33 75.6108L507.592 74.033L509.17 70.2948L505.456 68.7273L503.878 72.4656L500.164 70.8981L501.742 67.1599L498.004 65.5821L496.426 69.3203L492.712 67.7529L491.145 71.4667L494.859 73.0342L493.291 76.748L497.029 78.3257L495.452 82.064L499.165 83.6314L500.743 79.8932Z" fill="#FE022C"/>
<path d="M472.864 125.149L465.412 122.004L463.834 125.742L471.286 128.887L472.864 125.149Z" fill="white"/>
<path d="M468.14 136.34L453.26 130.06L451.693 133.773L466.572 140.053L468.14 136.34Z" fill="white"/>
<path d="M473.862 112.416L466.41 109.271L464.832 113.009L472.284 116.154L473.862 112.416Z" fill="white"/>
<path d="M451.531 102.99L449.953 106.729L438.763 102.006L437.195 105.719L448.386 110.442L438.96 132.774L442.674 134.342L447.387 123.176L451.101 124.743L449.523 128.481L453.261 130.059L454.839 126.321L462.266 129.456L463.834 125.742L452.668 121.029L454.246 117.291L450.532 115.724L453.667 108.296L457.381 109.863L465.239 91.2456L461.525 89.6781L455.245 104.558L451.531 102.99Z" fill="white"/>
<path d="M464.832 113.009L461.118 111.441L459.551 115.155L463.265 116.723L464.832 113.009Z" fill="white"/>
<path d="M476.997 104.988L478.575 101.25L482.288 102.818L483.856 99.1038L487.594 100.682L489.172 96.9433L492.886 98.5108L496.021 91.0831L492.307 89.5157L493.884 85.7774L486.432 82.6322L484.855 86.3705L481.116 84.7927L482.694 81.0545L475.267 77.9196L473.689 81.6578L469.951 80.08L466.816 87.5077L470.554 89.0854L468.976 92.8237L472.69 94.3911L471.122 98.1049L474.836 99.6724L473.259 103.411L476.997 104.988Z" fill="#FE022C"/>
<path d="M459.55 115.156L455.812 113.578L454.245 117.292L457.983 118.87L459.55 115.156Z" fill="white"/>
<path d="M463.102 85.9425L459.389 84.375L457.811 88.1132L461.525 89.6807L463.102 85.9425Z" fill="white"/>
<path d="M454.665 95.5612L450.927 93.9834L447.792 101.411L451.53 102.989L454.665 95.5612Z" fill="white"/>
<path d="M460.956 80.6588L457.217 79.0811L455.65 82.7949L459.388 84.3726L460.956 80.6588Z" fill="white"/>
<path d="M452.504 90.2481L448.79 88.6807L447.212 92.4189L450.926 93.9864L452.504 90.2481Z" fill="white"/>
<path d="M450.359 84.9655L442.907 81.8203L441.339 85.5341L448.791 88.6793L450.359 84.9655Z" fill="white"/>
<path d="M458.785 75.3688L451.333 72.2236L449.765 75.9374L457.217 79.0827L458.785 75.3688Z" fill="white"/>
<path d="M440.341 98.2677L432.913 95.1328L431.335 98.8711L438.763 102.006L440.341 98.2677Z" fill="white"/>
<path d="M444.484 78.0841L440.77 76.5166L439.192 80.2548L442.906 81.8223L444.484 78.0841Z" fill="white"/>
<path d="M434.479 91.4196L430.741 89.8418L429.174 93.5556L432.912 95.1334L434.479 91.4196Z" fill="white"/>
<path d="M442.338 72.8004L438.6 71.2227L437.032 74.9365L440.77 76.5142L442.338 72.8004Z" fill="white"/>
<path d="M452.91 68.4842L441.745 63.7715L440.167 67.5097L451.333 72.2224L452.91 68.4842Z" fill="white"/>
<path d="M433.886 82.3897L430.172 80.8223L427.027 88.2743L430.74 89.8418L433.886 82.3897Z" fill="white"/>
<path d="M443.312 60.0567L439.598 58.4893L438.031 62.2031L441.745 63.7705L443.312 60.0567Z" fill="white"/>
<path d="M433.318 73.3707L429.58 71.793L426.434 79.245L430.173 80.8228L433.318 73.3707Z" fill="white"/>
<path d="M435.86 56.9121L439.598 58.4899L441.176 54.7517L433.724 51.6064L425.866 70.2244L429.58 71.7918L435.86 56.9121Z" fill="white"/>
</g>
<g filter="url(#filter13_d_144_2325)">
<path d="M117.47 15.2304H115.95V16.7604H117.47V28.9504H119V12.1904H117.47V15.2304Z" fill="white"/>
<path d="M117.47 28.9502H115.95V30.4702H117.47V28.9502Z" fill="white"/>
<path d="M117.47 10.6602H115.95V12.1902H117.47V10.6602Z" fill="white"/>
<path d="M114.43 28.9502H112.9V30.4702H93.09V28.9502H91.57V30.4702H90.04V32.0002H115.95V30.4702H114.43V28.9502Z" fill="white"/>
<path d="M112.9 27.4199H111.38V28.9499H112.9V27.4199Z" fill="white"/>
<path d="M111.38 25.9004H109.85V27.4204H111.38V25.9004Z" fill="white"/>
<path d="M112.9 18.2803H109.85V19.8103H112.9V18.2803Z" fill="white"/>
<path d="M109.85 24.3799H108.33V25.8999H109.85V24.3799Z" fill="white"/>
<path d="M108.33 22.8496H106.81V24.3796H108.33V22.8496Z" fill="white"/>
<path d="M109.85 19.8096H106.81V21.3296H109.85V19.8096Z" fill="white"/>
<path d="M108.33 1.51953H106.81V3.03953H108.33V1.51953Z" fill="white"/>
<path d="M106.81 10.6602H103.76V12.1902H102.24V10.6602H99.1902V12.1902H97.6602V15.2302H99.1902V16.7602H100.71V18.2802H102.24V19.8102H103.76V18.2802H105.28V16.7602H106.81V15.2302H108.33V12.1902H106.81V10.6602Z" fill="white"/>
<path d="M106.81 21.3301H99.1899V22.8501H106.81V21.3301Z" fill="white"/>
<path d="M106.81 0H99.1899V1.52H106.81V0Z" fill="white"/>
<path d="M99.1902 22.8496H97.6602V24.3796H99.1902V22.8496Z" fill="white"/>
<path d="M99.1901 19.8096H96.1401V21.3296H99.1901V19.8096Z" fill="white"/>
<path d="M99.1902 1.51953H97.6602V3.03953H99.1902V1.51953Z" fill="white"/>
<path d="M97.6601 24.3799H96.1401V25.8999H97.6601V24.3799Z" fill="white"/>
<path d="M96.1401 25.9004H94.6201V27.4204H96.1401V25.9004Z" fill="white"/>
<path d="M96.1398 18.2803H93.0898V19.8103H96.1398V18.2803Z" fill="white"/>
<path d="M94.6198 27.4199H93.0898V28.9499H94.6198V27.4199Z" fill="white"/>
<path d="M91.57 16.76H90.04V18.28H93.09V6.09004H112.9V18.28H115.95V16.76H114.43V10.66H115.95V9.14004H114.43V4.57004H109.85V3.04004H108.33V4.57004H97.66V3.04004H96.14V4.57004H91.57V9.14004H90.04V10.66H91.57V16.76Z" fill="white"/>
<path d="M90.04 28.9502H88.52V30.4702H90.04V28.9502Z" fill="white"/>
<path d="M90.04 10.6602H88.52V12.1902H90.04V10.6602Z" fill="white"/>
<path d="M88.52 16.7604H90.04V15.2304H88.52V12.1904H87V28.9504H88.52V16.7604Z" fill="white"/>
</g>
<g filter="url(#filter14_d_144_2325)">
<path d="M131.018 205H135.009V208.991H139V213.009H135.009V217H131.018V213.009H127V208.991H131.018V205Z" fill="#FEDA02"/>
</g>
<g filter="url(#filter15_d_144_2325)">
<path d="M131 233H135V237H131V233Z" fill="#FEDA02"/>
</g>
<g filter="url(#filter16_d_144_2325)">
<path d="M138.982 176V180.018H143V184.009H138.982V188H134.991V184.009H131V180.018H134.991V176H138.982Z" fill="#FEDA02"/>
</g>
<g filter="url(#filter17_d_144_2325)">
<path d="M139 196H143V200H139V196Z" fill="#FEDA02"/>
</g>
<g filter="url(#filter18_d_144_2325)">
<path d="M143.009 245H146.991V248.991H151V253.009H146.991V257H143.009V253.009H139V248.991H143.009V245Z" fill="#FEDA02"/>
</g>
<g filter="url(#filter19_d_144_2325)">
<path d="M143 225H147V228H143V225Z" fill="#FEDA02"/>
</g>
<g filter="url(#filter20_d_144_2325)">
<path d="M159.659 225V220.676H156V216.324H159.659V212H163.341V216.324H167V220.676H163.341V225H159.659Z" fill="#FEDA02"/>
</g>
<g filter="url(#filter21_d_144_2325)">
<path d="M186 221H190V225H186V221Z" fill="#FEDA02"/>
</g>
<path d="M204 184H208V188H204V184Z" fill="white"/>
<defs>
<filter id="filter0_d_144_2325" x="137" y="7.71582" width="38.9878" height="20.5332" filterUnits="userSpaceOnUse" color-interpolation-filters="sRGB">
<feFlood flood-opacity="0" result="BackgroundImageFix"/>
<feColorMatrix in="SourceAlpha" type="matrix" values="0 0 0 0 0 0 0 0 0 0 0 0 0 0 0 0 0 0 127 0" result="hardAlpha"/>
<feOffset dy="3"/>
<feComposite in2="hardAlpha" operator="out"/>
<feColorMatrix type="matrix" values="0 0 0 0 0 0 0 0 0 0 0 0 0 0 0 0 0 0 1 0"/>
<feBlend mode="normal" in2="BackgroundImageFix" result="effect1_dropShadow_144_2325"/>
<feBlend mode="normal" in="SourceGraphic" in2="effect1_dropShadow_144_2325" result="shape"/>
</filter>
<filter id="filter1_d_144_2325" x="325" y="7.03027" width="28.2026" height="25.1963" filterUnits="userSpaceOnUse" color-interpolation-filters="sRGB">
<feFlood flood-opacity="0" result="BackgroundImageFix"/>
<feColorMatrix in="SourceAlpha" type="matrix" values="0 0 0 0 0 0 0 0 0 0 0 0 0 0 0 0 0 0 127 0" result="hardAlpha"/>
<feOffset dy="3"/>
<feComposite in2="hardAlpha" operator="out"/>
<feColorMatrix type="matrix" values="0 0 0 0 0 0 0 0 0 0 0 0 0 0 0 0 0 0 1 0"/>
<feBlend mode="normal" in2="BackgroundImageFix" result="effect1_dropShadow_144_2325"/>
<feBlend mode="normal" in="SourceGraphic" in2="effect1_dropShadow_144_2325" result="shape"/>
</filter>
<filter id="filter2_d_144_2325" x="193.731" y="12.0801" width="12" height="15" filterUnits="userSpaceOnUse" color-interpolation-filters="sRGB">
<feFlood flood-opacity="0" result="BackgroundImageFix"/>
<feColorMatrix in="SourceAlpha" type="matrix" values="0 0 0 0 0 0 0 0 0 0 0 0 0 0 0 0 0 0 127 0" result="hardAlpha"/>
<feOffset dy="3"/>
<feComposite in2="hardAlpha" operator="out"/>
<feColorMatrix type="matrix" values="0 0 0 0 0 0 0 0 0 0 0 0 0 0 0 0 0 0 1 0"/>
<feBlend mode="normal" in2="BackgroundImageFix" result="effect1_dropShadow_144_2325"/>
<feBlend mode="normal" in="SourceGraphic" in2="effect1_dropShadow_144_2325" result="shape"/>
</filter>
<filter id="filter3_d_144_2325" x="212.731" y="13.0801" width="12" height="15" filterUnits="userSpaceOnUse" color-interpolation-filters="sRGB">
<feFlood flood-opacity="0" result="BackgroundImageFix"/>
<feColorMatrix in="SourceAlpha" type="matrix" values="0 0 0 0 0 0 0 0 0 0 0 0 0 0 0 0 0 0 127 0" result="hardAlpha"/>
<feOffset dy="3"/>
<feComposite in2="hardAlpha" operator="out"/>
<feColorMatrix type="matrix" values="0 0 0 0 0 0 0 0 0 0 0 0 0 0 0 0 0 0 1 0"/>
<feBlend mode="normal" in2="BackgroundImageFix" result="effect1_dropShadow_144_2325"/>
<feBlend mode="normal" in="SourceGraphic" in2="effect1_dropShadow_144_2325" result="shape"/>
</filter>
<filter id="filter4_d_144_2325" x="231.192" y="6.83789" width="10.3765" height="21.6895" filterUnits="userSpaceOnUse" color-interpolation-filters="sRGB">
<feFlood flood-opacity="0" result="BackgroundImageFix"/>
<feColorMatrix in="SourceAlpha" type="matrix" values="0 0 0 0 0 0 0 0 0 0 0 0 0 0 0 0 0 0 127 0" result="hardAlpha"/>
<feOffset dy="3"/>
<feComposite in2="hardAlpha" operator="out"/>
<feColorMatrix type="matrix" values="0 0 0 0 0 0 0 0 0 0 0 0 0 0 0 0 0 0 1 0"/>
<feBlend mode="normal" in2="BackgroundImageFix" result="effect1_dropShadow_144_2325"/>
<feBlend mode="normal" in="SourceGraphic" in2="effect1_dropShadow_144_2325" result="shape"/>
</filter>
<filter id="filter5_d_144_2325" x="246.018" y="5.44531" width="13.6968" height="20.5918" filterUnits="userSpaceOnUse" color-interpolation-filters="sRGB">
<feFlood flood-opacity="0" result="BackgroundImageFix"/>
<feColorMatrix in="SourceAlpha" type="matrix" values="0 0 0 0 0 0 0 0 0 0 0 0 0 0 0 0 0 0 127 0" result="hardAlpha"/>
<feOffset dy="3"/>
<feComposite in2="hardAlpha" operator="out"/>
<feColorMatrix type="matrix" values="0 0 0 0 0 0 0 0 0 0 0 0 0 0 0 0 0 0 1 0"/>
<feBlend mode="normal" in2="BackgroundImageFix" result="effect1_dropShadow_144_2325"/>
<feBlend mode="normal" in="SourceGraphic" in2="effect1_dropShadow_144_2325" result="shape"/>
</filter>
<filter id="filter6_d_144_2325" x="264.542" y="8.29395" width="10.582" height="20.5801" filterUnits="userSpaceOnUse" color-interpolation-filters="sRGB">
<feFlood flood-opacity="0" result="BackgroundImageFix"/>
<feColorMatrix in="SourceAlpha" type="matrix" values="0 0 0 0 0 0 0 0 0 0 0 0 0 0 0 0 0 0 127 0" result="hardAlpha"/>
<feOffset dy="3"/>
<feComposite in2="hardAlpha" operator="out"/>
<feColorMatrix type="matrix" values="0 0 0 0 0 0 0 0 0 0 0 0 0 0 0 0 0 0 1 0"/>
<feBlend mode="normal" in2="BackgroundImageFix" result="effect1_dropShadow_144_2325"/>
<feBlend mode="normal" in="SourceGraphic" in2="effect1_dropShadow_144_2325" result="shape"/>
</filter>
<filter id="filter7_d_144_2325" x="280.731" y="12.0801" width="10" height="15" filterUnits="userSpaceOnUse" color-interpolation-filters="sRGB">
<feFlood flood-opacity="0" result="BackgroundImageFix"/>
<feColorMatrix in="SourceAlpha" type="matrix" values="0 0 0 0 0 0 0 0 0 0 0 0 0 0 0 0 0 0 127 0" result="hardAlpha"/>
<feOffset dy="3"/>
<feComposite in2="hardAlpha" operator="out"/>
<feColorMatrix type="matrix" values="0 0 0 0 0 0 0 0 0 0 0 0 0 0 0 0 0 0 1 0"/>
<feBlend mode="normal" in2="BackgroundImageFix" result="effect1_dropShadow_144_2325"/>
<feBlend mode="normal" in="SourceGraphic" in2="effect1_dropShadow_144_2325" result="shape"/>
</filter>
<filter id="filter8_d_144_2325" x="294.731" y="14.0801" width="13" height="20" filterUnits="userSpaceOnUse" color-interpolation-filters="sRGB">
<feFlood flood-opacity="0" result="BackgroundImageFix"/>
<feColorMatrix in="SourceAlpha" type="matrix" values="0 0 0 0 0 0 0 0 0 0 0 0 0 0 0 0 0 0 127 0" result="hardAlpha"/>
<feOffset dy="3"/>
<feComposite in2="hardAlpha" operator="out"/>
<feColorMatrix type="matrix" values="0 0 0 0 0 0 0 0 0 0 0 0 0 0 0 0 0 0 1 0"/>
<feBlend mode="normal" in2="BackgroundImageFix" result="effect1_dropShadow_144_2325"/>
<feBlend mode="normal" in="SourceGraphic" in2="effect1_dropShadow_144_2325" result="shape"/>
</filter>
<filter id="filter9_d_144_2325" x="175" y="149" width="45" height="48" filterUnits="userSpaceOnUse" color-interpolation-filters="sRGB">
<feFlood flood-opacity="0" result="BackgroundImageFix"/>
<feColorMatrix in="SourceAlpha" type="matrix" values="0 0 0 0 0 0 0 0 0 0 0 0 0 0 0 0 0 0 127 0" result="hardAlpha"/>
<feOffset dy="3"/>
<feComposite in2="hardAlpha" operator="out"/>
<feColorMatrix type="matrix" values="0 0 0 0 0 0 0 0 0 0 0 0 0 0 0 0 0 0 1 0"/>
<feBlend mode="normal" in2="BackgroundImageFix" result="effect1_dropShadow_144_2325"/>
<feBlend mode="normal" in="SourceGraphic" in2="effect1_dropShadow_144_2325" result="shape"/>
</filter>
<filter id="filter10_d_144_2325" x="0" y="59.9531" width="411.6" height="102.021" filterUnits="userSpaceOnUse" color-interpolation-filters="sRGB">
<feFlood flood-opacity="0" result="BackgroundImageFix"/>
<feColorMatrix in="SourceAlpha" type="matrix" values="0 0 0 0 0 0 0 0 0 0 0 0 0 0 0 0 0 0 127 0" result="hardAlpha"/>
<feOffset dy="3"/>
<feComposite in2="hardAlpha" operator="out"/>
<feColorMatrix type="matrix" values="0 0 0 0 0 0 0 0 0 0 0 0 0 0 0 0 0 0 1 0"/>
<feBlend mode="normal" in2="BackgroundImageFix" result="effect1_dropShadow_144_2325"/>
<feBlend mode="normal" in="SourceGraphic" in2="effect1_dropShadow_144_2325" result="shape"/>
</filter>
<filter id="filter11_d_144_2325" x="229" y="150" width="255.413" height="75.9639" filterUnits="userSpaceOnUse" color-interpolation-filters="sRGB">
<feFlood flood-opacity="0" result="BackgroundImageFix"/>
<feColorMatrix in="SourceAlpha" type="matrix" values="0 0 0 0 0 0 0 0 0 0 0 0 0 0 0 0 0 0 127 0" result="hardAlpha"/>
<feOffset dy="3"/>
<feComposite in2="hardAlpha" operator="out"/>
<feColorMatrix type="matrix" values="0 0 0 0 0 0 0 0 0 0 0 0 0 0 0 0 0 0 1 0"/>
<feBlend mode="normal" in2="BackgroundImageFix" result="effect1_dropShadow_144_2325"/>
<feBlend mode="normal" in="SourceGraphic" in2="effect1_dropShadow_144_2325" result="shape"/>
</filter>
<filter id="filter12_d_144_2325" x="425.866" y="51.6064" width="85.4644" height="91.4473" filterUnits="userSpaceOnUse" color-interpolation-filters="sRGB">
<feFlood flood-opacity="0" result="BackgroundImageFix"/>
<feColorMatrix in="SourceAlpha" type="matrix" values="0 0 0 0 0 0 0 0 0 0 0 0 0 0 0 0 0 0 127 0" result="hardAlpha"/>
<feOffset dy="3"/>
<feComposite in2="hardAlpha" operator="out"/>
<feColorMatrix type="matrix" values="0 0 0 0 0 0 0 0 0 0 0 0 0 0 0 0 0 0 1 0"/>
<feBlend mode="normal" in2="BackgroundImageFix" result="effect1_dropShadow_144_2325"/>
<feBlend mode="normal" in="SourceGraphic" in2="effect1_dropShadow_144_2325" result="shape"/>
</filter>
<filter id="filter13_d_144_2325" x="87" y="0" width="32" height="35" filterUnits="userSpaceOnUse" color-interpolation-filters="sRGB">
<feFlood flood-opacity="0" result="BackgroundImageFix"/>
<feColorMatrix in="SourceAlpha" type="matrix" values="0 0 0 0 0 0 0 0 0 0 0 0 0 0 0 0 0 0 127 0" result="hardAlpha"/>
<feOffset dy="3"/>
<feComposite in2="hardAlpha" operator="out"/>
<feColorMatrix type="matrix" values="0 0 0 0 0 0 0 0 0 0 0 0 0 0 0 0 0 0 1 0"/>
<feBlend mode="normal" in2="BackgroundImageFix" result="effect1_dropShadow_144_2325"/>
<feBlend mode="normal" in="SourceGraphic" in2="effect1_dropShadow_144_2325" result="shape"/>
</filter>
<filter id="filter14_d_144_2325" x="127" y="205" width="12" height="15" filterUnits="userSpaceOnUse" color-interpolation-filters="sRGB">
<feFlood flood-opacity="0" result="BackgroundImageFix"/>
<feColorMatrix in="SourceAlpha" type="matrix" values="0 0 0 0 0 0 0 0 0 0 0 0 0 0 0 0 0 0 127 0" result="hardAlpha"/>
<feOffset dy="3"/>
<feComposite in2="hardAlpha" operator="out"/>
<feColorMatrix type="matrix" values="0 0 0 0 0 0 0 0 0 0 0 0 0 0 0 0 0 0 1 0"/>
<feBlend mode="normal" in2="BackgroundImageFix" result="effect1_dropShadow_144_2325"/>
<feBlend mode="normal" in="SourceGraphic" in2="effect1_dropShadow_144_2325" result="shape"/>
</filter>
<filter id="filter15_d_144_2325" x="131" y="233" width="4" height="7" filterUnits="userSpaceOnUse" color-interpolation-filters="sRGB">
<feFlood flood-opacity="0" result="BackgroundImageFix"/>
<feColorMatrix in="SourceAlpha" type="matrix" values="0 0 0 0 0 0 0 0 0 0 0 0 0 0 0 0 0 0 127 0" result="hardAlpha"/>
<feOffset dy="3"/>
<feComposite in2="hardAlpha" operator="out"/>
<feColorMatrix type="matrix" values="0 0 0 0 0 0 0 0 0 0 0 0 0 0 0 0 0 0 1 0"/>
<feBlend mode="normal" in2="BackgroundImageFix" result="effect1_dropShadow_144_2325"/>
<feBlend mode="normal" in="SourceGraphic" in2="effect1_dropShadow_144_2325" result="shape"/>
</filter>
<filter id="filter16_d_144_2325" x="131" y="176" width="12" height="15" filterUnits="userSpaceOnUse" color-interpolation-filters="sRGB">
<feFlood flood-opacity="0" result="BackgroundImageFix"/>
<feColorMatrix in="SourceAlpha" type="matrix" values="0 0 0 0 0 0 0 0 0 0 0 0 0 0 0 0 0 0 127 0" result="hardAlpha"/>
<feOffset dy="3"/>
<feComposite in2="hardAlpha" operator="out"/>
<feColorMatrix type="matrix" values="0 0 0 0 0 0 0 0 0 0 0 0 0 0 0 0 0 0 1 0"/>
<feBlend mode="normal" in2="BackgroundImageFix" result="effect1_dropShadow_144_2325"/>
<feBlend mode="normal" in="SourceGraphic" in2="effect1_dropShadow_144_2325" result="shape"/>
</filter>
<filter id="filter17_d_144_2325" x="139" y="196" width="4" height="7" filterUnits="userSpaceOnUse" color-interpolation-filters="sRGB">
<feFlood flood-opacity="0" result="BackgroundImageFix"/>
<feColorMatrix in="SourceAlpha" type="matrix" values="0 0 0 0 0 0 0 0 0 0 0 0 0 0 0 0 0 0 127 0" result="hardAlpha"/>
<feOffset dy="3"/>
<feComposite in2="hardAlpha" operator="out"/>
<feColorMatrix type="matrix" values="0 0 0 0 0 0 0 0 0 0 0 0 0 0 0 0 0 0 1 0"/>
<feBlend mode="normal" in2="BackgroundImageFix" result="effect1_dropShadow_144_2325"/>
<feBlend mode="normal" in="SourceGraphic" in2="effect1_dropShadow_144_2325" result="shape"/>
</filter>
<filter id="filter18_d_144_2325" x="139" y="245" width="12" height="15" filterUnits="userSpaceOnUse" color-interpolation-filters="sRGB">
<feFlood flood-opacity="0" result="BackgroundImageFix"/>
<feColorMatrix in="SourceAlpha" type="matrix" values="0 0 0 0 0 0 0 0 0 0 0 0 0 0 0 0 0 0 127 0" result="hardAlpha"/>
<feOffset dy="3"/>
<feComposite in2="hardAlpha" operator="out"/>
<feColorMatrix type="matrix" values="0 0 0 0 0 0 0 0 0 0 0 0 0 0 0 0 0 0 1 0"/>
<feBlend mode="normal" in2="BackgroundImageFix" result="effect1_dropShadow_144_2325"/>
<feBlend mode="normal" in="SourceGraphic" in2="effect1_dropShadow_144_2325" result="shape"/>
</filter>
<filter id="filter19_d_144_2325" x="143" y="225" width="4" height="6" filterUnits="userSpaceOnUse" color-interpolation-filters="sRGB">
<feFlood flood-opacity="0" result="BackgroundImageFix"/>
<feColorMatrix in="SourceAlpha" type="matrix" values="0 0 0 0 0 0 0 0 0 0 0 0 0 0 0 0 0 0 127 0" result="hardAlpha"/>
<feOffset dy="3"/>
<feComposite in2="hardAlpha" operator="out"/>
<feColorMatrix type="matrix" values="0 0 0 0 0 0 0 0 0 0 0 0 0 0 0 0 0 0 1 0"/>
<feBlend mode="normal" in2="BackgroundImageFix" result="effect1_dropShadow_144_2325"/>
<feBlend mode="normal" in="SourceGraphic" in2="effect1_dropShadow_144_2325" result="shape"/>
</filter>
<filter id="filter20_d_144_2325" x="156" y="212" width="11" height="16" filterUnits="userSpaceOnUse" color-interpolation-filters="sRGB">
<feFlood flood-opacity="0" result="BackgroundImageFix"/>
<feColorMatrix in="SourceAlpha" type="matrix" values="0 0 0 0 0 0 0 0 0 0 0 0 0 0 0 0 0 0 127 0" result="hardAlpha"/>
<feOffset dy="3"/>
<feComposite in2="hardAlpha" operator="out"/>
<feColorMatrix type="matrix" values="0 0 0 0 0 0 0 0 0 0 0 0 0 0 0 0 0 0 1 0"/>
<feBlend mode="normal" in2="BackgroundImageFix" result="effect1_dropShadow_144_2325"/>
<feBlend mode="normal" in="SourceGraphic" in2="effect1_dropShadow_144_2325" result="shape"/>
</filter>
<filter id="filter21_d_144_2325" x="186" y="221" width="4" height="7" filterUnits="userSpaceOnUse" color-interpolation-filters="sRGB">
<feFlood flood-opacity="0" result="BackgroundImageFix"/>
<feColorMatrix in="SourceAlpha" type="matrix" values="0 0 0 0 0 0 0 0 0 0 0 0 0 0 0 0 0 0 127 0" result="hardAlpha"/>
<feOffset dy="3"/>
<feComposite in2="hardAlpha" operator="out"/>
<feColorMatrix type="matrix" values="0 0 0 0 0 0 0 0 0 0 0 0 0 0 0 0 0 0 1 0"/>
<feBlend mode="normal" in2="BackgroundImageFix" result="effect1_dropShadow_144_2325"/>
<feBlend mode="normal" in="SourceGraphic" in2="effect1_dropShadow_144_2325" result="shape"/>
</filter>
</defs>
</svg>
